0
SECTION
2
HEADER
9
$INSUNITS
70
4
9
$ACADVER
1
AC1014
9
$HANDSEED
5
FFFF
0
ENDSEC
0
SECTION
2
TABLES
0
TABLE
2
VPORT
5
8
100
AcDbSymbolTable
0
ENDTAB
0
TABLE
2
LTYPE
5
5
100
AcDbSymbolTable
0
LTYPE
5
14
100
AcDbSymbolTableRecord
100
AcDbLinetypeTableRecord
2
BYBLOCK
70
0
0
LTYPE
5
15
100
AcDbSymbolTableRecord
100
AcDbLinetypeTableRecord
2
BYLAYER
70
0
0
ENDTAB
0
TABLE
2
LAYER
5
2
100
AcDbSymbolTable
70
2
0
LAYER
5
50
100
AcDbSymbolTableRecord
100
AcDbLayerTableRecord
2
0
70
0
6
CONTINUOUS
0
ENDTAB
0
TABLE
2
STYLE
5
3
100
AcDbSymbolTable
70
1
0
STYLE
5
11
100
AcDbSymbolTableRecord
100
AcDbTextStyleTableRecord
2
STANDARD
70
0
0
ENDTAB
0
TABLE
2
VIEW
5
6
100
AcDbSymbolTable
70
0
0
ENDTAB
0
TABLE
2
UCS
5
7
100
AcDbSymbolTable
70
0
0
ENDTAB
0
TABLE
2
APPID
5
9
100
AcDbSymbolTable
70
2
0
APPID
5
12
100
AcDbSymbolTableRecord
100
AcDbRegAppTableRecord
2
ACAD
70
0
0
ENDTAB
0
TABLE
2
DIMSTYLE
5
A
100
AcDbSymbolTable
70
1
0
ENDTAB
0
TABLE
2
BLOCK_RECORD
5
1
100
AcDbSymbolTable
70
1
0
BLOCK_RECORD
5
1F
100
AcDbSymbolTableRecord
100
AcDbBlockTableRecord
2
*MODEL_SPACE
0
BLOCK_RECORD
5
1B
100
AcDbSymbolTableRecord
100
AcDbBlockTableRecord
2
*PAPER_SPACE
0
ENDTAB
0
ENDSEC
0
SECTION
2
BLOCKS
0
BLOCK
5
20
100
AcDbEntity
100
AcDbBlockBegin
2
*MODEL_SPACE
0
ENDBLK
5
21
100
AcDbEntity
100
AcDbBlockEnd
0
BLOCK
5
1C
100
AcDbEntity
100
AcDbBlockBegin
2
*PAPER_SPACE
0
ENDBLK
5
1D
100
AcDbEntity
100
AcDbBlockEnd
0
ENDSEC
0
SECTION
2
ENTITIES
0
LWPOLYLINE
5
100
100
AcDbEntity
8
0
100
AcDbPolyline
90
8
70
1
43
0.0
10
-31.100000000000001
20
16.024999999999999
10
-31.100000000000001
20
3.0249999999999999
42
-0.41421356237309537
10
-31.600000000000001
20
2.5249999999999999
10
-44.600000000000001
20
2.525000000000003
42
-0.41421356237309437
10
-45.099999999999994
20
3.0249999999999999
10
-45.099999999999994
20
16.024999999999999
42
-0.4142135623730937
10
-44.600000000000001
20
16.525000000000002
10
-31.600000000000001
20
16.525000000000002
42
-0.41421356237309631
0
LWPOLYLINE
5
101
100
AcDbEntity
8
0
100
AcDbPolyline
90
8
70
1
43
0.0
10
-102.53749999999999
20
54.125000000000007
10
-102.53749999999999
20
41.125
42
-0.41421356237308982
10
-103.03750000000001
20
40.625
10
-116.03749999999999
20
40.624999999999993
42
-0.41421356237307422
10
-116.53750000000001
20
41.125
10
-116.53749999999999
20
54.125000000000007
42
-0.41421356237310025
10
-116.03749999999999
20
54.625
10
-103.03750000000001
20
54.625000000000014
42
-0.41421356237309503
0
LWPOLYLINE
5
102
100
AcDbEntity
8
0
100
AcDbPolyline
90
8
70
1
43
0.0
10
-14.93125
20
40.625
42
0.41421356237309503
10
-14.431250000000002
20
41.125
10
-14.43125
20
54.125000000000007
42
0.4142135623730937
10
-14.93125
20
54.625
10
-27.931249999999999
20
54.625
42
0.41421356237309503
10
-28.431249999999999
20
54.125000000000007
10
-28.431249999999999
20
41.125
42
0.41421356237309503
10
-27.931249999999999
20
40.625
0
LWPOLYLINE
5
103
100
AcDbEntity
8
0
100
AcDbPolyline
90
8
70
1
43
0.0
10
-45.887500000000003
20
40.625
42
0.41421356237309503
10
-45.387500000000003
20
41.125
10
-45.387500000000003
20
54.125000000000007
42
0.41421356237309503
10
-45.887500000000003
20
54.625
10
-58.88750000000001
20
54.625
42
0.41421356237309503
10
-59.387500000000003
20
54.125000000000007
10
-59.387500000000003
20
41.125
42
0.41421356237309503
10
-58.88750000000001
20
40.625
0
LWPOLYLINE
5
104
100
AcDbEntity
8
0
100
AcDbPolyline
90
8
70
1
43
0.0
10
-6.4932500000000006
20
41.625000000000007
42
0.4142135623730957
10
-5.9932500000000015
20
42.125
10
-5.9932499999999997
20
56.125000000000007
42
0.41421356237309631
10
-6.4932500000000006
20
56.625000000000007
10
-12.49325
20
56.625000000000007
42
0.41421356237309764
10
-12.993249999999998
20
56.125000000000007
10
-12.99325
20
42.125
42
0.41421356237309631
10
-12.49325
20
41.625000000000007
0
LWPOLYLINE
5
105
100
AcDbEntity
8
0
100
AcDbPolyline
90
8
70
1
43
0.0
10
-83.987499999999997
20
40.625
42
0.41421356237308982
10
-83.487499999999983
20
41.125
10
-83.487499999999983
20
54.125000000000007
42
0.41421356237309503
10
-83.987499999999997
20
54.625
10
-96.987500000000011
20
54.625
42
0.41421356237308982
10
-97.487500000000011
20
54.125000000000007
10
-97.487500000000011
20
41.125
42
0.41421356237309503
10
-96.987500000000011
20
40.624999999999993
0
LWPOLYLINE
5
106
100
AcDbEntity
8
0
100
AcDbPolyline
90
8
70
1
43
0.0
10
-64.9375
20
40.625
42
0.41421356237309503
10
-64.4375
20
41.125
10
-64.4375
20
54.125000000000007
42
0.41421356237309503
10
-64.9375
20
54.625
10
-77.9375
20
54.625
42
0.41421356237309503
10
-78.4375
20
54.125000000000007
10
-78.4375
20
41.125
42
0.41421356237309503
10
-77.9375
20
40.625
0
LWPOLYLINE
5
107
100
AcDbEntity
8
0
100
AcDbPolyline
90
8
70
1
43
0.0
10
-30.369250000000001
20
41.625000000000007
42
0.41421356237309764
10
-29.869249999999997
20
42.125
10
-29.869250000000001
20
56.125000000000007
42
0.41421356237309764
10
-30.369250000000001
20
56.625000000000007
10
-36.369250000000001
20
56.625000000000007
42
0.41421356237309764
10
-36.869250000000001
20
56.125000000000007
10
-36.869250000000001
20
42.125
42
0.41421356237309764
10
-36.369250000000001
20
41.625000000000007
0
LWPOLYLINE
5
108
100
AcDbEntity
8
0
100
AcDbPolyline
90
8
70
1
43
0.0
10
-198.28749999999999
20
40.625
42
0.4142135623730222
10
-197.78750000000002
20
41.125
10
-197.78749999999999
20
54.125000000000007
42
0.41421356237312101
10
-198.28749999999999
20
54.625
10
-211.28749999999999
20
54.625
42
0.41421356237307422
10
-211.78750000000002
20
54.125000000000007
10
-211.78750000000002
20
41.125
42
0.41421356237313145
10
-211.28749999999999
20
40.624999999999993
0
LWPOLYLINE
5
109
100
AcDbEntity
8
0
100
AcDbPolyline
90
8
70
1
43
0.0
10
-141.13749999999999
20
40.625
42
0.41421356237308982
10
-140.63749999999999
20
41.125
10
-140.63749999999999
20
54.125000000000007
42
0.41421356237309503
10
-141.13749999999999
20
54.625000000000014
10
-154.13749999999999
20
54.625
42
0.41421356237308982
10
-154.63750000000002
20
54.125000000000007
10
-154.63750000000002
20
41.125
42
0.41421356237309503
10
-154.13749999999999
20
40.624999999999993
0
LWPOLYLINE
5
110
100
AcDbEntity
8
0
100
AcDbPolyline
90
8
70
1
43
0.0
10
-160.1875
20
40.625
42
0.41421356237308982
10
-159.6875
20
41.125
10
-159.6875
20
54.125000000000007
42
0.41421356237309503
10
-160.1875
20
54.625000000000014
10
-173.1875
20
54.625
42
0.4142135623730222
10
-173.68750000000003
20
54.125000000000007
10
-173.68750000000003
20
41.125
42
0.41421356237312101
10
-173.1875
20
40.624999999999993
0
LWPOLYLINE
5
111
100
AcDbEntity
8
0
100
AcDbPolyline
90
8
70
1
43
0.0
10
-179.23750000000001
20
40.625
42
0.41421356237307422
10
-178.73749999999998
20
41.125
10
-178.73750000000001
20
54.125000000000007
42
0.41421356237313145
10
-179.23750000000001
20
54.625
10
-192.23750000000001
20
54.625
42
0.4142135623730222
10
-192.73750000000004
20
54.125000000000007
10
-192.73750000000004
20
41.125
42
0.41421356237312101
10
-192.23750000000001
20
40.625
0
LWPOLYLINE
5
112
100
AcDbEntity
8
0
100
AcDbPolyline
90
8
70
1
43
0.0
10
-83.96875
20
72.674999999999997
42
0.41421356237310025
10
-84.468749999999986
20
72.174999999999997
10
-84.46875
20
58.174999999999997
42
0.41421356237307422
10
-83.96875
20
57.67499999999999
10
-77.962500000000006
20
57.674999999999997
42
0.41421356237309503
10
-77.462500000000006
20
58.174999999999997
10
-77.462500000000006
20
72.174999999999997
42
0.41421356237309503
10
-77.962500000000006
20
72.674999999999997
0
LWPOLYLINE
5
113
100
AcDbEntity
8
0
100
AcDbPolyline
90
20
70
1
43
0.0
10
-251.76875000000001
20
54.625
10
-251.18175000000002
20
54.625
10
-251.18175000000005
20
56.125000000000007
42
-0.41421356237307422
10
-250.68174999999999
20
56.625000000000007
10
-244.68175000000002
20
56.625
42
-0.41421356237312623
10
-244.18175000000002
20
56.125000000000007
10
-244.18175000000002
20
54.625
10
-227.30575000000002
20
54.625
10
-227.30575000000005
20
56.125000000000007
42
-0.41421356237307422
10
-226.80575000000002
20
56.625000000000007
10
-220.80574999999999
20
56.625000000000014
42
-0.41421356237313667
10
-220.30574999999999
20
56.125000000000007
10
-220.30574999999999
20
54.625
10
-217.33750000000001
20
54.624999999999986
42
-0.41421356237312101
10
-216.83750000000001
20
54.125000000000007
10
-216.83750000000003
20
41.125
42
-0.4142135623730222
10
-217.33750000000001
20
40.625
10
-251.76875000000001
20
40.625000000000014
42
-0.41421356237312101
10
-252.26875000000004
20
41.125
10
-252.26875000000001
20
54.125000000000007
42
-0.4142135623730222
0
LWPOLYLINE
5
114
100
AcDbEntity
8
0
100
AcDbPolyline
90
8
70
1
43
0.0
10
-53.031250000000007
20
59.675000000000004
42
0.41421356237309503
10
-52.531250000000007
20
60.174999999999997
10
-52.531250000000007
20
73.174999999999997
42
0.41421356237309503
10
-53.031250000000007
20
73.674999999999997
10
-73.174999999999997
20
73.674999999999997
42
0.41421356237309503
10
-73.674999999999997
20
73.174999999999997
10
-73.674999999999997
20
60.174999999999997
42
0.41421356237309503
10
-73.174999999999997
20
59.675000000000004
0
LWPOLYLINE
5
115
100
AcDbEntity
8
0
100
AcDbPolyline
90
8
70
1
43
0.0
10
-29.21875
20
59.675000000000004
42
0.41421356237309764
10
-28.718749999999996
20
60.174999999999997
10
-28.71875
20
73.174999999999997
42
0.41421356237309503
10
-29.21875
20
73.674999999999997
10
-46.981250000000003
20
73.674999999999997
42
0.41421356237309503
10
-47.481250000000003
20
73.174999999999997
10
-47.481250000000003
20
60.174999999999997
42
0.41421356237309503
10
-46.981250000000003
20
59.675000000000004
0
LWPOLYLINE
5
116
100
AcDbEntity
8
0
100
AcDbPolyline
90
15
70
1
43
0.0
10
-93.012499999999989
20
73.174999999999997
42
0.41421356237310542
10
-92.512499999999989
20
72.675000000000011
10
-87.455750000000009
20
72.675000000000011
42
-0.41421356237307422
10
-86.955749999999995
20
72.174999999999997
10
-86.955750000000023
20
58.174999999999997
42
-0.41421356237310025
10
-87.455750000000009
20
57.674999999999997
10
-93.455749999999995
20
57.67499999999999
42
-0.41421356237309503
10
-93.955750000000009
20
58.174999999999997
10
-93.955750000000009
20
59.175000000000004
42
0.41421356237310542
10
-94.455750000000023
20
59.674999999999997
10
-108.89375000000001
20
59.674999999999983
42
-0.41421356237310025
10
-109.39375000000001
20
60.174999999999997
10
-109.39375000000001
20
73.174999999999997
42
-0.41421356237308982
10
-108.89375000000001
20
73.674999999999997
10
-93.512500000000003
20
73.675000000000011
42
-0.41421356237309503
0
LWPOLYLINE
5
117
100
AcDbEntity
8
0
100
AcDbPolyline
90
8
70
1
43
0.0
10
-5.40625
20
59.675000000000004
42
0.4142135623730957
10
-4.9062500000000009
20
60.174999999999997
10
-4.90625
20
73.174999999999997
42
0.4142135623730937
10
-5.4062499999999991
20
73.674999999999997
10
-20.787500000000001
20
73.674999999999997
42
0.41421356237309503
10
-21.287500000000001
20
73.174999999999997
10
-21.287500000000001
20
60.174999999999997
42
0.41421356237309764
10
-20.787500000000001
20
59.675000000000004
0
LWPOLYLINE
5
118
100
AcDbEntity
8
0
100
AcDbPolyline
90
22
70
1
43
0.0
10
-134.08074999999999
20
59.675000000000004
42
0.41421356237310542
10
-134.58075000000002
20
59.175000000000004
10
-134.58075000000002
20
58.174999999999997
42
-0.41421356237310025
10
-135.08074999999999
20
57.674999999999997
10
-141.11250000000001
20
57.67499999999999
42
-0.41421356237309503
10
-141.61250000000001
20
58.174999999999997
10
-141.61250000000001
20
72.174999999999997
42
-0.41421356237308982
10
-141.11250000000001
20
72.674999999999997
10
-138.46875000000003
20
72.674999999999997
42
0.414213562373069
10
-137.96875
20
73.174999999999997
42
-0.41421356237310025
10
-137.46875
20
73.674999999999997
10
-122.08750000000002
20
73.675000000000011
42
-0.41421356237309503
10
-121.58750000000001
20
73.174999999999997
42
0.41421356237310542
10
-121.08750000000001
20
72.675000000000011
10
-111.33175000000001
20
72.675000000000011
42
-0.41421356237309503
10
-110.83175
20
72.174999999999997
10
-110.83175
20
58.174999999999997
42
-0.41421356237308982
10
-111.33175000000001
20
57.674999999999997
10
-122.0625
20
57.67499999999999
42
-0.41421356237309503
10
-122.56250000000001
20
58.174999999999997
10
-122.56250000000001
20
59.175000000000004
42
0.41421356237310542
10
-123.06250000000003
20
59.674999999999997
0
LWPOLYLINE
5
119
100
AcDbEntity
8
0
100
AcDbPolyline
90
15
70
1
43
0.0
10
-164.66250000000002
20
72.674999999999997
42
0.4142135623730222
10
-164.16249999999997
20
73.174999999999997
42
-0.4142135623730222
10
-163.66250000000002
20
73.674999999999997
10
-143.51875000000001
20
73.675000000000011
42
-0.41421356237307422
10
-143.01875000000001
20
73.174999999999997
10
-143.01875000000001
20
60.174999999999997
42
-0.41421356237310542
10
-143.51875000000001
20
59.675000000000004
10
-157.95675
20
59.675000000000004
42
0.41421356237310542
10
-158.45675
20
59.175000000000004
10
-158.45675
20
58.174999999999997
42
-0.41421356237308982
10
-158.95675
20
57.674999999999997
10
-164.95675000000003
20
57.674999999999997
42
-0.41421356237313145
10
-165.45675000000003
20
58.174999999999997
10
-165.45675000000006
20
72.174999999999997
42
-0.41421356237307422
10
-164.95675000000003
20
72.674999999999997
0
LWPOLYLINE
5
120
100
AcDbEntity
8
0
100
AcDbPolyline
90
8
70
1
43
0.0
10
-140.34999999999999
20
3.0249999999999999
42
0.41421356237309437
10
-139.84999999999999
20
2.5249999999999941
10
-126.85000000000001
20
2.5249999999999999
42
0.41421356237307422
10
-126.34999999999999
20
3.0249999999999999
10
-126.34999999999999
20
16.024999999999999
42
0.41421356237307555
10
-126.85000000000001
20
16.525000000000006
10
-139.84999999999999
20
16.525000000000002
42
0.41421356237310675
10
-140.34999999999999
20
16.024999999999999
0
LWPOLYLINE
5
121
100
AcDbEntity
8
0
100
AcDbPolyline
90
8
70
1
43
0.0
10
-236.38750000000002
20
59.675000000000004
42
0.4142135623730222
10
-235.88750000000005
20
60.174999999999997
10
-235.88750000000002
20
73.174999999999997
42
0.41421356237312101
10
-236.38750000000002
20
73.675000000000011
10
-251.76875000000001
20
73.674999999999997
42
0.4142135623730222
10
-252.26875000000004
20
73.174999999999997
10
-252.26875000000004
20
60.174999999999997
42
0.41421356237312623
10
-251.76875000000001
20
59.674999999999997
0
LWPOLYLINE
5
122
100
AcDbEntity
8
0
100
AcDbPolyline
90
8
70
1
43
0.0
10
-88.25
20
16.024999999999999
10
-88.249999999999972
20
3.0249999999999999
42
-0.41421356237310542
10
-88.75
20
2.5249999999999999
10
-101.75
20
2.5249999999999941
42
-0.41421356237309437
10
-102.25000000000001
20
3.0249999999999999
10
-102.25000000000001
20
16.024999999999999
42
-0.41421356237310675
10
-101.75
20
16.525000000000002
10
-88.75
20
16.525000000000009
42
-0.41421356237309631
0
LWPOLYLINE
5
123
100
AcDbEntity
8
0
100
AcDbPolyline
90
8
70
1
43
0.0
10
-64.150000000000006
20
3.0249999999999999
42
0.41421356237309698
10
-63.650000000000006
20
2.5249999999999986
10
-50.650000000000006
20
2.5249999999999999
42
0.41421356237309404
10
-50.150000000000006
20
3.0249999999999999
10
-50.150000000000006
20
16.024999999999999
42
0.41421356237309503
10
-50.650000000000006
20
16.524999999999999
10
-63.650000000000006
20
16.525000000000002
42
0.41421356237309631
10
-64.150000000000006
20
16.024999999999999
0
LWPOLYLINE
5
124
100
AcDbEntity
8
0
100
AcDbPolyline
90
8
70
1
43
0.0
10
-107.80000000000001
20
2.5249999999999999
42
0.41421356237310542
10
-107.29999999999998
20
3.0249999999999999
10
-107.30000000000001
20
16.024999999999999
42
0.41421356237309631
10
-107.80000000000001
20
16.525000000000006
10
-120.8
20
16.525000000000002
42
0.41421356237307555
10
-121.30000000000001
20
16.024999999999999
10
-121.30000000000001
20
3.0249999999999999
42
0.41421356237307355
10
-120.8
20
2.5249999999999999
0
LWPOLYLINE
5
125
100
AcDbEntity
8
0
100
AcDbPolyline
90
8
70
1
43
0.0
10
-7.7875000000000005
20
2.5249999999999999
42
0.41421356237309437
10
-7.2874999999999996
20
3.0249999999999999
10
-7.2874999999999996
20
16.024999999999999
42
0.41421356237309243
10
-7.7875000000000005
20
16.525000000000002
10
-20.787500000000001
20
16.525000000000002
42
0.41421356237309503
10
-21.287500000000001
20
16.024999999999999
10
-21.287500000000001
20
3.0249999999999999
42
0.4142135623730957
10
-20.787500000000001
20
2.5250000000000017
0
LWPOLYLINE
5
126
100
AcDbEntity
8
0
100
AcDbPolyline
90
8
70
1
43
0.0
10
-69.700000000000003
20
2.5249999999999999
42
0.41421356237309664
10
-69.200000000000003
20
3.0249999999999999
10
-69.200000000000003
20
16.024999999999999
42
0.41421356237309764
10
-69.700000000000003
20
16.525000000000002
10
-82.700000000000017
20
16.525000000000002
42
0.41421356237307555
10
-83.200000000000017
20
16.024999999999999
10
-83.200000000000017
20
3.0249999999999999
42
0.41421356237307355
10
-82.700000000000017
20
2.5249999999999999
0
LWPOLYLINE
5
127
100
AcDbEntity
8
0
100
AcDbPolyline
90
8
70
1
43
0.0
10
-145.90000000000001
20
2.5249999999999999
42
0.41421356237307422
10
-145.40000000000001
20
3.0249999999999999
10
-145.40000000000001
20
16.024999999999999
42
0.41421356237307555
10
-145.90000000000001
20
16.525000000000002
10
-158.90000000000001
20
16.525000000000002
42
0.41421356237310675
10
-159.40000000000001
20
16.024999999999999
10
-159.40000000000001
20
3.0249999999999999
42
0.41421356237309437
10
-158.90000000000001
20
2.5249999999999928
0
LWPOLYLINE
5
128
100
AcDbEntity
8
0
100
AcDbPolyline
90
8
70
1
43
0.0
10
-164.95000000000002
20
2.5249999999999999
42
0.41421356237307749
10
-164.44999999999996
20
3.0249999999999999
10
-164.44999999999999
20
16.024999999999999
42
0.41421356237313406
10
-164.95000000000002
20
16.525000000000006
10
-177.94999999999999
20
16.525000000000002
42
0.4142135623730781
10
-178.44999999999999
20
16.024999999999999
10
-178.44999999999999
20
3.0249999999999999
42
0.41421356237313273
10
-177.94999999999999
20
2.5249999999999928
0
LWPOLYLINE
5
129
100
AcDbEntity
8
0
100
AcDbPolyline
90
8
70
1
43
0.0
10
-216.55000000000004
20
3.0249999999999999
42
0.41421356237310153
10
-216.05000000000004
20
2.5249999999999817
10
-203.05000000000004
20
2.5249999999999999
42
0.41421356237307749
10
-202.55000000000001
20
3.0249999999999999
10
-202.55000000000001
20
16.024999999999999
42
0.41421356237313406
10
-203.05000000000004
20
16.525000000000002
10
-216.05000000000004
20
16.525000000000002
42
0.41421356237304691
10
-216.55000000000004
20
16.024999999999999
0
LWPOLYLINE
5
130
100
AcDbEntity
8
0
100
AcDbPolyline
90
8
70
1
43
0.0
10
-5.40625
20
21.575000000000003
10
-23.168749999999999
20
21.575000000000003
42
-0.41421356237309503
10
-23.668749999999999
20
22.074999999999999
10
-23.668749999999999
20
35.075000000000003
42
-0.41421356237309503
10
-23.168749999999999
20
35.575000000000003
10
-5.4062499999999991
20
35.575000000000003
42
-0.41421356237309503
10
-4.90625
20
35.075000000000003
10
-4.9062500000000036
20
22.074999999999999
42
-0.41421356237309437
0
LWPOLYLINE
5
131
100
AcDbEntity
8
0
100
AcDbPolyline
90
8
70
1
43
0.0
10
-183.5
20
16.024999999999999
10
-183.49999999999997
20
3.0249999999999999
42
-0.41421356237307749
10
-184.00000000000003
20
2.5249999999999999
10
-197.00000000000003
20
2.5249999999999817
42
-0.41421356237310153
10
-197.50000000000003
20
3.0249999999999999
10
-197.50000000000003
20
16.024999999999999
42
-0.41421356237304691
10
-197.00000000000003
20
16.525000000000002
10
-184.00000000000003
20
16.525000000000002
42
-0.41421356237313406
0
LWPOLYLINE
5
132
100
AcDbEntity
8
0
100
AcDbPolyline
90
20
70
1
43
0.0
10
-222.10000000000002
20
2.5249999999999999
10
-254.15000000000003
20
2.5249999999999995
42
-0.41421356237313273
10
-254.65000000000003
20
3.0249999999999999
10
-254.65000000000006
20
16.024999999999999
42
-0.4142135623730781
10
-254.15000000000003
20
16.525000000000002
10
-253.56300000000002
20
16.524999999999999
10
-253.56300000000002
20
18.024999999999999
42
-0.41421356237304691
10
-253.06299999999999
20
18.524999999999999
10
-247.06299999999999
20
18.524999999999984
42
-0.41421356237312235
10
-246.56299999999999
20
18.024999999999999
10
-246.56299999999999
20
16.524999999999999
10
-229.68700000000001
20
16.524999999999999
10
-229.68700000000001
20
18.024999999999999
42
-0.41421356237304691
10
-229.18700000000001
20
18.524999999999999
10
-223.18700000000004
20
18.524999999999999
42
-0.41421356237313273
10
-222.68700000000001
20
18.024999999999999
10
-222.68700000000001
20
16.525000000000002
10
-222.10000000000002
20
16.524999999999984
42
-0.41421356237312362
10
-221.59999999999999
20
16.024999999999999
10
-221.59999999999999
20
3.0249999999999999
42
-0.41421356237304624
0
LWPOLYLINE
5
133
100
AcDbEntity
8
0
100
AcDbPolyline
90
8
70
1
43
0.0
10
-107.01250000000002
20
22.074999999999999
42
0.41421356237309503
10
-106.51250000000002
20
21.574999999999992
10
-93.512500000000003
20
21.575000000000003
42
0.41421356237310802
10
-93.012499999999989
20
22.074999999999999
10
-93.012499999999989
20
35.075000000000003
42
0.41421356237309243
10
-93.512500000000003
20
35.575000000000003
10
-106.51250000000002
20
35.575000000000003
42
0.41421356237310542
10
-107.01250000000002
20
35.075000000000003
0
LWPOLYLINE
5
134
100
AcDbEntity
8
0
100
AcDbPolyline
90
8
70
1
43
0.0
10
-55.412500000000009
20
21.575000000000003
42
0.41421356237309503
10
-54.912500000000009
20
22.074999999999999
10
-54.912500000000009
20
35.075000000000003
42
0.41421356237309503
10
-55.412500000000009
20
35.575000000000003
10
-68.412499999999994
20
35.575000000000003
42
0.41421356237309503
10
-68.912499999999994
20
35.075000000000003
10
-68.912499999999994
20
22.074999999999999
42
0.41421356237309503
10
-68.412499999999994
20
21.575000000000003
0
LWPOLYLINE
5
135
100
AcDbEntity
8
0
100
AcDbPolyline
90
8
70
1
43
0.0
10
-36.362499999999997
20
21.575000000000003
42
0.41421356237309503
10
-35.862500000000004
20
22.074999999999999
10
-35.862500000000004
20
35.075000000000003
42
0.41421356237309503
10
-36.362499999999997
20
35.575000000000003
10
-49.362500000000004
20
35.575000000000003
42
0.41421356237309503
10
-49.862499999999997
20
35.075000000000003
10
-49.862499999999997
20
22.074999999999999
42
0.41421356237309503
10
-49.362500000000004
20
21.575000000000003
0
LWPOLYLINE
5
136
100
AcDbEntity
8
0
100
AcDbPolyline
90
8
70
1
43
0.0
10
-74.462500000000006
20
21.575000000000003
42
0.41421356237309764
10
-73.96250000000002
20
22.074999999999999
10
-73.962500000000006
20
35.075000000000003
42
0.41421356237309764
10
-74.462500000000006
20
35.575000000000003
10
-87.46250000000002
20
35.575000000000003
42
0.41421356237310025
10
-87.962500000000006
20
35.075000000000003
10
-87.96250000000002
20
22.074999999999999
42
0.41421356237307422
10
-87.46250000000002
20
21.574999999999992
0
LWPOLYLINE
5
137
100
AcDbEntity
8
0
100
AcDbPolyline
90
15
70
1
43
0.0
10
-184.46875000000003
20
59.175000000000004
42
0.4142135623730222
10
-184.96875000000003
20
59.675000000000026
10
-230.33750000000001
20
59.674999999999997
42
-0.41421356237313667
10
-230.83750000000003
20
60.174999999999997
10
-230.83750000000006
20
73.174999999999997
42
-0.41421356237307422
10
-230.33750000000001
20
73.674999999999997
10
-184.00000000000003
20
73.674999999999997
42
-0.41421356237313145
10
-183.5
20
73.174999999999997
42
0.41421356237307944
10
-183
20
72.675000000000011
10
-173.21250000000003
20
72.674999999999997
42
-0.41421356237313145
10
-172.71250000000003
20
72.174999999999997
10
-172.71249999999998
20
58.174999999999997
42
-0.41421356237307422
10
-173.21250000000003
20
57.674999999999997
10
-183.96875
20
57.675000000000018
42
-0.41421356237312101
10
-184.46875000000003
20
58.174999999999997
0
LWPOLYLINE
5
138
100
AcDbEntity
8
0
100
AcDbPolyline
90
8
70
1
43
0.0
10
-112.56250000000001
20
21.575000000000003
42
0.41421356237310802
10
-112.0625
20
22.074999999999999
10
-112.0625
20
35.075000000000003
42
0.41421356237309243
10
-112.56250000000001
20
35.57500000000001
10
-125.5625
20
35.575000000000003
42
0.41421356237310025
10
-126.06250000000001
20
35.075000000000003
10
-126.06250000000001
20
22.074999999999999
42
0.41421356237307422
10
-125.5625
20
21.574999999999992
0
LWPOLYLINE
5
139
100
AcDbEntity
8
0
100
AcDbPolyline
90
8
70
1
43
0.0
10
-131.61250000000001
20
21.575000000000003
42
0.41421356237310802
10
-131.11250000000001
20
22.074999999999999
10
-131.11250000000001
20
35.075000000000003
42
0.41421356237309243
10
-131.61250000000001
20
35.57500000000001
10
-144.61250000000001
20
35.575000000000003
42
0.41421356237310025
10
-145.11250000000001
20
35.075000000000003
10
-145.11250000000001
20
22.074999999999999
42
0.41421356237307422
10
-144.61250000000001
20
21.574999999999992
0
LWPOLYLINE
5
140
100
AcDbEntity
8
0
100
AcDbPolyline
90
8
70
1
43
0.0
10
-188.26249999999999
20
35.075000000000003
10
-188.26249999999999
20
22.074999999999999
42
-0.41421356237305079
10
-188.76249999999999
20
21.575000000000003
10
-201.76249999999999
20
21.574999999999996
42
-0.41421356237313406
10
-202.26249999999999
20
22.074999999999999
10
-202.26250000000005
20
35.075000000000003
42
-0.41421356237307683
10
-201.76249999999999
20
35.575000000000003
10
-188.76249999999999
20
35.575000000000017
42
-0.41421356237310025
0
LWPOLYLINE
5
141
100
AcDbEntity
8
0
100
AcDbPolyline
90
8
70
1
43
0.0
10
-122.08750000000002
20
40.625
42
0.41421356237308982
10
-121.58750000000001
20
41.125
10
-121.58750000000001
20
54.125000000000007
42
0.41421356237309503
10
-122.08750000000002
20
54.625000000000014
10
-135.08750000000001
20
54.625
42
0.41421356237310025
10
-135.58750000000001
20
54.125000000000007
10
-135.58750000000001
20
41.125
42
0.41421356237307422
10
-135.08750000000001
20
40.624999999999993
0
LWPOLYLINE
5
142
100
AcDbEntity
8
0
100
AcDbPolyline
90
8
70
1
43
0.0
10
-234.00625000000002
20
21.575000000000003
42
0.41421356237308204
10
-233.50625000000002
20
22.074999999999999
10
-233.50625000000002
20
35.075000000000003
42
0.41421356237313145
10
-234.00625000000002
20
35.57500000000001
10
-247.00625000000002
20
35.575000000000003
42
0.41421356237304563
10
-247.50625000000002
20
35.075000000000003
10
-247.50625000000002
20
22.074999999999999
42
0.41421356237310281
10
-247.00625000000002
20
21.574999999999992
0
LWPOLYLINE
5
143
100
AcDbEntity
8
0
100
AcDbPolyline
90
8
70
1
43
0.0
10
-207.8125
20
21.575000000000003
42
0.41421356237305079
10
-207.3125
20
22.074999999999999
10
-207.3125
20
35.075000000000003
42
0.41421356237310025
10
-207.8125
20
35.57500000000001
10
-220.8125
20
35.575000000000003
42
0.41421356237307683
10
-221.3125
20
35.075000000000003
10
-221.3125
20
22.074999999999999
42
0.41421356237313406
10
-220.8125
20
21.575000000000003
0
LWPOLYLINE
5
144
100
AcDbEntity
8
0
100
AcDbPolyline
90
8
70
1
43
0.0
10
-150.66249999999999
20
21.575000000000003
42
0.41421356237310802
10
-150.16249999999999
20
22.074999999999999
10
-150.16249999999999
20
35.075000000000003
42
0.41421356237309243
10
-150.66249999999999
20
35.57500000000001
10
-163.66250000000002
20
35.575000000000003
42
0.41421356237304563
10
-164.16250000000002
20
35.075000000000003
10
-164.16250000000002
20
22.074999999999999
42
0.41421356237310281
10
-163.66250000000002
20
21.574999999999992
0
LWPOLYLINE
5
145
100
AcDbEntity
8
0
100
AcDbPolyline
90
8
70
1
43
0.0
10
-169.71250000000001
20
21.575000000000003
42
0.41421356237308204
10
-169.21250000000001
20
22.074999999999999
10
-169.21250000000001
20
35.075000000000003
42
0.41421356237313145
10
-169.71250000000001
20
35.575000000000003
10
-182.71250000000003
20
35.575000000000003
42
0.41421356237304563
10
-183.21250000000003
20
35.075000000000003
10
-183.21250000000003
20
22.074999999999999
42
0.41421356237310281
10
-182.71250000000003
20
21.574999999999992
0
LWPOLYLINE
5
146
100
AcDbEntity
8
0
100
AcDbPolyline
90
8
70
1
43
0.0
10
7.4940054162198066e-15
20
74.200000000000017
42
0.41421356237309309
10
-1.9999999999999931
20
76.200000000000017
10
-255.17499999999998
20
76.200000000000017
42
0.41421356237309631
10
-257.17499999999995
20
74.200000000000003
10
-257.17500000000001
20
2.0000000000000018
42
0.41421356237309426
10
-255.17500000000001
20
1.4155343563970746e-14
10
-1.9999999999999929
20
0
42
0.41421356237309415
10
-2.7755575615628914e-16
20
2.0000000000000027
0
ENDSEC
0
SECTION
2
OBJECTS
0
DICTIONARY
5
C
100
AcDbDictionary
3
ACAD_GROUP
350
D
3
ACAD_MLINESTYLE
350
17
0
DICTIONARY
5
D
100
AcDbDictionary
0
DICTIONARY
5
1A
330
C
100
AcDbDictionary
0
DICTIONARY
5
17
100
AcDbDictionary
0
ENDSEC
0
EOF
