M48
; DRILL file {KiCad (6.99.0-5179-g411efe6f3d)} date Monday, January 30, 2023 at 05:50:43 PM
; FORMAT={-:-/ absolute / inch / decimal}
; #@! TF.CreationDate,2023-01-30T17:50:43-08:00
; #@! TF.GenerationSoftware,Kicad,Pcbnew,(6.99.0-5179-g411efe6f3d)
; #@! TF.FileFunction,Plated,1,2,PTH
FMAT,2
INCH
; #@! TA.AperFunction,Plated,PTH,ViaDrill
T1C0.0118
; #@! TA.AperFunction,Plated,PTH,ComponentDrill
T2C0.0600
; #@! TA.AperFunction,Plated,PTH,ComponentDrill
T3C0.1200
%
G90
G05
T1
X-1.7781Y2.2533
X-1.7781Y2.2155
X-1.6531Y1.8314
X-1.6219Y1.7656
X-1.5906Y2.1311
X-1.575Y2.2969
X-1.575Y1.7656
X-1.5689Y2.4219
X-1.5594Y2.0938
X-1.5594Y2.0625
X-1.5594Y2.0313
X-1.5405Y2.5469
X-1.538Y1.7442
X-1.5281Y2.0938
X-1.5281Y2.0625
X-1.5281Y2.0313
X-1.4969Y2.0938
X-1.4969Y2.0625
X-1.4969Y2.0313
X-1.3752Y1.9186
X-1.3094Y1.8906
X-1.3094Y1.847
X-1.2781Y2.2533
X-1.2781Y2.2155
X-1.2625Y1.4643
X-1.2469Y1.6094
X-1.1375Y1.5682
X-1.1186Y1.9186
X-1.1063Y2.185
X-1.0125Y1.5033
X-1.0125Y1.4655
X0.3Y2.7466
T2
X-6.2719Y0.9125
X-6.2719Y2.4125
X-6.1781Y3.1625
X-6.1781Y0.9125
X-6.0844Y2.4125
X-6.0219Y1.0125
X-6.0219Y2.5125
X-5.9281Y3.2625
X-5.9281Y1.0125
X-5.8969Y1.6625
X-5.8344Y2.5125
X-5.6469Y1.7625
X-5.3344Y0.9125
X-5.2406Y3.1625
X-5.1469Y0.9125
X-5.0844Y1.0125
X-5.0531Y2.4125
X-4.9906Y3.2625
X-4.8969Y1.0125
X-4.8031Y2.5125
X-4.6781Y1.6625
X-4.4906Y3.1625
X-4.4281Y1.7625
X-4.3969Y0.9125
X-4.3031Y2.4125
X-4.2406Y3.2625
X-4.1469Y1.0125
X-4.1156Y0.9125
X-4.0531Y2.5125
X-3.9281Y1.6625
X-3.8656Y1.0125
X-3.7406Y3.1625
X-3.6781Y1.7625
X-3.5531Y2.4125
X-3.4906Y3.2625
X-3.3031Y2.5125
X-3.1781Y1.6625
X-2.9906Y3.1625
X-2.9281Y1.7625
X-2.8031Y2.4125
X-2.8031Y0.9125
X-2.7406Y3.2625
X-2.7094Y0.9125
X-2.5531Y2.5125
X-2.5531Y1.0125
X-2.4594Y1.0125
X-2.4281Y1.6625
X-2.2406Y3.1625
X-2.1781Y1.7625
X-2.0531Y2.4125
X-1.9906Y3.2625
X-1.8031Y2.5125
X-1.6781Y1.6625
X-1.6781Y0.9125
X-1.5844Y0.9125
X-1.4906Y3.1625
X-1.4281Y1.7625
X-1.4281Y1.0125
X-1.3344Y1.0125
X-1.3031Y2.4125
X-1.2406Y3.2625
X-1.0531Y2.5125
X-0.9281Y1.6625
X-0.8375Y0.9125
X-0.7406Y3.1625
X-0.6781Y1.7625
X-0.5875Y1.0125
X-0.5531Y2.4125
X-0.5531Y0.9125
X-0.4906Y3.2625
X-0.3031Y2.5125
X-0.3031Y1.0125
X-0.1781Y1.6625
X0.0094Y3.1625
X0.0719Y1.7625
X0.1969Y2.4125
X0.2594Y3.2625
X0.4469Y2.5125
X0.5719Y1.6625
X0.7594Y3.1625
X0.7594Y0.9125
X0.8219Y1.7625
X0.9469Y2.4125
X1.0094Y3.2625
X1.0094Y1.0125
X1.0406Y0.9125
X1.1969Y2.5125
X1.2281Y0.9125
X1.2906Y1.0125
X1.3219Y1.6625
X1.4781Y1.0125
X1.5094Y3.1625
X1.5719Y1.7625
X1.6969Y2.4125
X1.7594Y3.2625
X1.7906Y0.9125
X1.9469Y2.5125
X1.9781Y0.9125
X2.0406Y1.0125
X2.0719Y1.6625
X2.0719Y0.9125
X2.2281Y1.0125
X2.2594Y3.1625
X2.3219Y1.7625
X2.3219Y1.0125
X2.5094Y3.2625
X2.5406Y1.6625
X2.6344Y3.1625
X2.7281Y2.4125
X2.7906Y1.7625
X2.8219Y0.9125
X2.8844Y3.2625
X2.9156Y1.6625
X2.9156Y0.9125
X2.9781Y2.5125
X3.0094Y3.1625
X3.0719Y1.0125
X3.1656Y1.7625
X3.1656Y1.0125
X3.2594Y3.2625
T3
X-6.2156Y1.8375
X-5.2781Y1.8375
X-3.4031Y0.5375
X-3.0281Y0.5375
X-2.0906Y0.5375
X-1.9031Y0.5375
X-1.1531Y0.5375
X-1.1531Y0.5375
X-0.2156Y0.5375
X0.3469Y0.5375
X2.2219Y1.8375
X2.3156Y3.3375
X3.1594Y1.8375
X3.2531Y3.3375
T0
M30
