%TF.GenerationSoftware,KiCad,Pcbnew,(6.99.0-5179-g411efe6f3d)*%
%TF.CreationDate,2023-01-30T17:50:43-08:00*%
%TF.ProjectId,pcb,7063622e-6b69-4636-9164-5f7063625858,rev?*%
%TF.SameCoordinates,Original*%
%TF.FileFunction,Paste,Bot*%
%TF.FilePolarity,Positive*%
%FSLAX46Y46*%
G04 Gerber Fmt 4.6, Leading zero omitted, Abs format (unit mm)*
G04 Created by KiCad (PCBNEW (6.99.0-5179-g411efe6f3d)) date 2023-01-30 17:50:43*
%MOMM*%
%LPD*%
G01*
G04 APERTURE LIST*
G04 Aperture macros list*
%AMRoundRect*
0 Rectangle with rounded corners*
0 $1 Rounding radius*
0 $2 $3 $4 $5 $6 $7 $8 $9 X,Y pos of 4 corners*
0 Add a 4 corners polygon primitive as box body*
4,1,4,$2,$3,$4,$5,$6,$7,$8,$9,$2,$3,0*
0 Add four circle primitives for the rounded corners*
1,1,$1+$1,$2,$3*
1,1,$1+$1,$4,$5*
1,1,$1+$1,$6,$7*
1,1,$1+$1,$8,$9*
0 Add four rect primitives between the rounded corners*
20,1,$1+$1,$2,$3,$4,$5,0*
20,1,$1+$1,$4,$5,$6,$7,0*
20,1,$1+$1,$6,$7,$8,$9,0*
20,1,$1+$1,$8,$9,$2,$3,0*%
G04 Aperture macros list end*
%ADD10R,1.200000X0.900000*%
%ADD11RoundRect,0.140000X0.140000X0.170000X-0.140000X0.170000X-0.140000X-0.170000X0.140000X-0.170000X0*%
%ADD12RoundRect,0.150000X0.150000X-0.587500X0.150000X0.587500X-0.150000X0.587500X-0.150000X-0.587500X0*%
%ADD13RoundRect,0.140000X0.170000X-0.140000X0.170000X0.140000X-0.170000X0.140000X-0.170000X-0.140000X0*%
%ADD14RoundRect,0.140000X-0.140000X-0.170000X0.140000X-0.170000X0.140000X0.170000X-0.140000X0.170000X0*%
%ADD15RoundRect,0.140000X-0.170000X0.140000X-0.170000X-0.140000X0.170000X-0.140000X0.170000X0.140000X0*%
%ADD16R,1.000000X1.700000*%
%ADD17RoundRect,0.150000X0.625000X-0.150000X0.625000X0.150000X-0.625000X0.150000X-0.625000X-0.150000X0*%
%ADD18RoundRect,0.250000X0.650000X-0.350000X0.650000X0.350000X-0.650000X0.350000X-0.650000X-0.350000X0*%
%ADD19RoundRect,0.135000X-0.185000X0.135000X-0.185000X-0.135000X0.185000X-0.135000X0.185000X0.135000X0*%
%ADD20RoundRect,0.150000X-0.150000X0.587500X-0.150000X-0.587500X0.150000X-0.587500X0.150000X0.587500X0*%
%ADD21RoundRect,0.075000X0.075000X-0.662500X0.075000X0.662500X-0.075000X0.662500X-0.075000X-0.662500X0*%
%ADD22RoundRect,0.075000X0.662500X-0.075000X0.662500X0.075000X-0.662500X0.075000X-0.662500X-0.075000X0*%
G04 APERTURE END LIST*
D10*
%TO.C,D33*%
X21510691Y36450095D03*
X21510691Y39750095D03*
%TD*%
D11*
%TO.C,C12*%
X-40715716Y58340772D03*
X-41675716Y58340772D03*
%TD*%
D10*
%TO.C,D13*%
X-88027083Y74550191D03*
X-88027083Y77850191D03*
%TD*%
%TO.C,D3*%
X-142795971Y36450095D03*
X-142795971Y39750095D03*
%TD*%
%TO.C,D44*%
X51832011Y31812695D03*
X51832011Y28512695D03*
%TD*%
%TO.C,D22*%
X-35639451Y36450095D03*
X-35639451Y39750095D03*
%TD*%
D12*
%TO.C,U2*%
X-39848840Y60181404D03*
X-41748840Y60181404D03*
X-40798840Y62056404D03*
%TD*%
D10*
%TO.C,D1*%
X-149939739Y74550191D03*
X-149939739Y77850191D03*
%TD*%
%TO.C,D4*%
X-150574747Y31812575D03*
X-150574747Y28512575D03*
%TD*%
D13*
%TO.C,C10*%
X-33258196Y56273268D03*
X-33258196Y57233268D03*
%TD*%
D14*
%TO.C,C1*%
X-34928824Y48021996D03*
X-33968824Y48021996D03*
%TD*%
D10*
%TO.C,D29*%
X-7064379Y55500143D03*
X-7064379Y58800143D03*
%TD*%
%TO.C,D34*%
X26273203Y74550191D03*
X26273203Y77850191D03*
%TD*%
D15*
%TO.C,C4*%
X-40005088Y46517616D03*
X-40005088Y45557616D03*
%TD*%
D10*
%TO.C,D25*%
X-26114427Y55500143D03*
X-26114427Y58800143D03*
%TD*%
D13*
%TO.C,C11*%
X-34448824Y56273268D03*
X-34448824Y57233268D03*
%TD*%
D10*
%TO.C,D10*%
X-102314619Y55500143D03*
X-102314619Y58800143D03*
%TD*%
D14*
%TO.C,C2*%
X-34928824Y46914492D03*
X-33968824Y46914492D03*
%TD*%
D10*
%TO.C,D46*%
X76676455Y31812575D03*
X76676455Y28512575D03*
%TD*%
D16*
%TO.C,SW54*%
X-30792559Y48393863D03*
X-30792559Y42093863D03*
X-26992559Y42093863D03*
X-26992559Y48393863D03*
%TD*%
D10*
%TO.C,D12*%
X-98187115Y31812575D03*
X-98187115Y28512575D03*
%TD*%
D15*
%TO.C,C5*%
X-41195716Y46517616D03*
X-41195716Y45557616D03*
%TD*%
D10*
%TO.C,D20*%
X-49926987Y74550191D03*
X-49926987Y77850191D03*
%TD*%
%TO.C,D35*%
X31035715Y55500143D03*
X31035715Y58800143D03*
%TD*%
D15*
%TO.C,C3*%
X-32861320Y42548856D03*
X-32861320Y41588856D03*
%TD*%
D11*
%TO.C,C9*%
X-39128212Y63897036D03*
X-40088212Y63897036D03*
%TD*%
D10*
%TO.C,D37*%
X45323251Y74550191D03*
X45323251Y77850191D03*
%TD*%
%TO.C,D27*%
X-15002247Y31415699D03*
X-15002247Y28115699D03*
%TD*%
%TO.C,D18*%
X-64214523Y55500143D03*
X-64214523Y58800143D03*
%TD*%
%TO.C,D38*%
X50085763Y55500143D03*
X50085763Y58800143D03*
%TD*%
D17*
%TO.C,J1*%
X6048148Y66762672D03*
X6048148Y67762672D03*
X6048148Y68762672D03*
X6048148Y69762672D03*
D18*
X2173148Y71062672D03*
X2173148Y65462672D03*
%TD*%
D10*
%TO.C,D14*%
X-83264571Y55500143D03*
X-83264571Y58800143D03*
%TD*%
D19*
%TO.C,R3*%
X-26511304Y40197600D03*
X-26511304Y39177600D03*
%TD*%
%TO.C,R2*%
X-31273816Y38213220D03*
X-31273816Y37193220D03*
%TD*%
D10*
%TO.C,D11*%
X-92789595Y36450095D03*
X-92789595Y39750095D03*
%TD*%
D20*
%TO.C,Q1*%
X-29842560Y39831348D03*
X-27942560Y39831348D03*
X-28892560Y37956348D03*
%TD*%
D10*
%TO.C,D23*%
X-36274459Y31812575D03*
X-36274459Y28512575D03*
%TD*%
%TO.C,D19*%
X-54689499Y36450095D03*
X-54689499Y39750095D03*
%TD*%
%TO.C,D31*%
X7223155Y74550191D03*
X7223155Y77850191D03*
%TD*%
%TO.C,D40*%
X25638195Y31750079D03*
X25638195Y28450079D03*
%TD*%
%TO.C,D8*%
X-129143443Y31812575D03*
X-129143443Y28512575D03*
%TD*%
%TO.C,D41*%
X54054523Y74550191D03*
X54054523Y77850191D03*
%TD*%
%TO.C,D30*%
X2460643Y36450095D03*
X2460643Y39750095D03*
%TD*%
%TO.C,D32*%
X11985667Y55500143D03*
X11985667Y58800143D03*
%TD*%
%TO.C,D2*%
X-147558483Y55500143D03*
X-147558483Y58800143D03*
%TD*%
%TO.C,D6*%
X-121364667Y55500143D03*
X-121364667Y58800143D03*
%TD*%
D13*
%TO.C,C7*%
X-43180096Y56273268D03*
X-43180096Y57233268D03*
%TD*%
D10*
%TO.C,D42*%
X76279579Y55500143D03*
X76279579Y58800143D03*
%TD*%
D13*
%TO.C,C8*%
X-44370724Y56273268D03*
X-44370724Y57233268D03*
%TD*%
D19*
%TO.C,R1*%
X-31273816Y40197600D03*
X-31273816Y39177600D03*
%TD*%
D10*
%TO.C,D39*%
X59610787Y36450095D03*
X59610787Y39750095D03*
%TD*%
%TO.C,D43*%
X81042091Y36450095D03*
X81042091Y39750095D03*
%TD*%
%TO.C,D24*%
X-30876939Y74550191D03*
X-30876939Y77850191D03*
%TD*%
%TO.C,D7*%
X-111839643Y36450095D03*
X-111839643Y39750095D03*
%TD*%
%TO.C,D15*%
X-73739547Y36450095D03*
X-73739547Y39750095D03*
%TD*%
%TO.C,D28*%
X-11826891Y74550191D03*
X-11826891Y77850191D03*
%TD*%
D15*
%TO.C,C6*%
X-26511304Y38183220D03*
X-26511304Y37223220D03*
%TD*%
D10*
%TO.C,D17*%
X-68977035Y74550191D03*
X-68977035Y77850191D03*
%TD*%
%TO.C,D45*%
X83740835Y31812575D03*
X83740835Y28512575D03*
%TD*%
D21*
%TO.C,U1*%
X-36064460Y48225132D03*
X-36564460Y48225132D03*
X-37064460Y48225132D03*
X-37564460Y48225132D03*
X-38064460Y48225132D03*
X-38564460Y48225132D03*
X-39064460Y48225132D03*
X-39564460Y48225132D03*
X-40064460Y48225132D03*
X-40564460Y48225132D03*
X-41064460Y48225132D03*
X-41564460Y48225132D03*
D22*
X-42976960Y49637632D03*
X-42976960Y50137632D03*
X-42976960Y50637632D03*
X-42976960Y51137632D03*
X-42976960Y51637632D03*
X-42976960Y52137632D03*
X-42976960Y52637632D03*
X-42976960Y53137632D03*
X-42976960Y53637632D03*
X-42976960Y54137632D03*
X-42976960Y54637632D03*
X-42976960Y55137632D03*
D21*
X-41564460Y56550132D03*
X-41064460Y56550132D03*
X-40564460Y56550132D03*
X-40064460Y56550132D03*
X-39564460Y56550132D03*
X-39064460Y56550132D03*
X-38564460Y56550132D03*
X-38064460Y56550132D03*
X-37564460Y56550132D03*
X-37064460Y56550132D03*
X-36564460Y56550132D03*
X-36064460Y56550132D03*
D22*
X-34651960Y55137632D03*
X-34651960Y54637632D03*
X-34651960Y54137632D03*
X-34651960Y53637632D03*
X-34651960Y53137632D03*
X-34651960Y52637632D03*
X-34651960Y52137632D03*
X-34651960Y51637632D03*
X-34651960Y51137632D03*
X-34651960Y50637632D03*
X-34651960Y50137632D03*
X-34651960Y49637632D03*
%TD*%
D10*
%TO.C,D21*%
X-55483251Y55500143D03*
X-55483251Y58800143D03*
%TD*%
%TO.C,D5*%
X-126127179Y74550191D03*
X-126127179Y77850191D03*
%TD*%
%TO.C,D36*%
X40560739Y36450095D03*
X40560739Y39750095D03*
%TD*%
%TO.C,D16*%
X-62468275Y31812695D03*
X-62468275Y28512695D03*
%TD*%
%TO.C,D26*%
X-16589403Y36450095D03*
X-16589403Y39750095D03*
%TD*%
%TO.C,D9*%
X-107077131Y74550191D03*
X-107077131Y77850191D03*
%TD*%
M02*
