M48
; DRILL file {KiCad (6.99.0-5179-g411efe6f3d)} date Monday, January 30, 2023 at 05:50:43 PM
; FORMAT={-:-/ absolute / inch / decimal}
; #@! TF.CreationDate,2023-01-30T17:50:43-08:00
; #@! TF.GenerationSoftware,Kicad,Pcbnew,(6.99.0-5179-g411efe6f3d)
; #@! TF.FileFunction,NonPlated,1,2,NPTH
FMAT,2
INCH
; #@! TA.AperFunction,NonPlated,NPTH,ComponentDrill
T1C0.0670
; #@! TA.AperFunction,NonPlated,NPTH,ComponentDrill
T2C0.1200
; #@! TA.AperFunction,NonPlated,NPTH,ComponentDrill
T3C0.1570
%
G90
G05
T1
X-6.3219Y0.8125
X-6.3219Y2.3125
X-6.2281Y3.0625
X-6.2281Y0.8125
X-6.1344Y2.3125
X-5.9469Y1.5625
X-5.9219Y0.8125
X-5.9219Y2.3125
X-5.8281Y3.0625
X-5.8281Y0.8125
X-5.7344Y2.3125
X-5.5469Y1.5625
X-5.3844Y0.8125
X-5.2906Y3.0625
X-5.1969Y0.8125
X-5.1031Y2.3125
X-4.9844Y0.8125
X-4.8906Y3.0625
X-4.7969Y0.8125
X-4.7281Y1.5625
X-4.7031Y2.3125
X-4.5406Y3.0625
X-4.4469Y0.8125
X-4.3531Y2.3125
X-4.3281Y1.5625
X-4.1656Y0.8125
X-4.1406Y3.0625
X-4.0469Y0.8125
X-3.9781Y1.5625
X-3.9531Y2.3125
X-3.7906Y3.0625
X-3.7656Y0.8125
X-3.6031Y2.3125
X-3.5781Y1.5625
X-3.3906Y3.0625
X-3.2281Y1.5625
X-3.2031Y2.3125
X-3.0406Y3.0625
X-2.8531Y2.3125
X-2.8531Y0.8125
X-2.8281Y1.5625
X-2.7594Y0.8125
X-2.6406Y3.0625
X-2.4781Y1.5625
X-2.4531Y2.3125
X-2.4531Y0.8125
X-2.3594Y0.8125
X-2.2906Y3.0625
X-2.1031Y2.3125
X-2.0781Y1.5625
X-1.8906Y3.0625
X-1.7281Y1.5625
X-1.7281Y0.8125
X-1.7031Y2.3125
X-1.6344Y0.8125
X-1.5406Y3.0625
X-1.3531Y2.3125
X-1.3281Y1.5625
X-1.3281Y0.8125
X-1.2344Y0.8125
X-1.1406Y3.0625
X-0.9781Y1.5625
X-0.9531Y2.3125
X-0.8875Y0.8125
X-0.7906Y3.0625
X-0.6031Y2.3125
X-0.6031Y0.8125
X-0.5781Y1.5625
X-0.4875Y0.8125
X-0.3906Y3.0625
X-0.2281Y1.5625
X-0.2031Y2.3125
X-0.2031Y0.8125
X-0.0406Y3.0625
X0.1469Y2.3125
X0.1719Y1.5625
X0.3594Y3.0625
X0.5219Y1.5625
X0.5469Y2.3125
X0.7094Y3.0625
X0.7094Y0.8125
X0.8969Y2.3125
X0.9219Y1.5625
X0.9906Y0.8125
X1.1094Y3.0625
X1.1094Y0.8125
X1.1781Y0.8125
X1.2719Y1.5625
X1.2969Y2.3125
X1.3906Y0.8125
X1.4594Y3.0625
X1.5781Y0.8125
X1.6469Y2.3125
X1.6719Y1.5625
X1.7406Y0.8125
X1.8594Y3.0625
X1.9281Y0.8125
X2.0219Y1.5625
X2.0219Y0.8125
X2.0469Y2.3125
X2.1406Y0.8125
X2.2094Y3.0625
X2.3281Y0.8125
X2.4219Y1.5625
X2.4219Y0.8125
X2.4906Y1.5625
X2.5844Y3.0625
X2.6094Y3.0625
X2.6781Y2.3125
X2.7719Y0.8125
X2.8656Y1.5625
X2.8656Y0.8125
X2.8906Y1.5625
X2.9594Y3.0625
X2.9844Y3.0625
X3.0781Y2.3125
X3.1719Y0.8125
X3.2656Y1.5625
X3.2656Y0.8125
X3.3594Y3.0625
T2
X-3.4031Y0.5375
X-3.4031Y0.5375
X0.3469Y0.5375
X0.5344Y0.5375
T3
X-6.2156Y1.2375
X-6.1219Y0.8125
X-6.1219Y2.3125
X-6.0281Y3.0625
X-6.0281Y0.8125
X-5.9344Y2.3125
X-5.7469Y1.5625
X-5.2781Y1.2375
X-5.1844Y0.8125
X-5.0906Y3.0625
X-4.9969Y0.8125
X-4.9031Y2.3125
X-4.5281Y1.5625
X-4.3406Y3.0625
X-4.2469Y0.8125
X-4.1531Y2.3125
X-3.9656Y0.8125
X-3.7781Y1.5625
X-3.5906Y3.0625
X-3.4031Y2.3125
X-3.4031Y1.1375
X-3.4031Y1.1375
X-3.4031Y1.1375
X-3.0281Y1.5625
X-3.0281Y1.1375
X-2.8406Y3.0625
X-2.6531Y2.3125
X-2.6531Y0.8125
X-2.5594Y0.8125
X-2.2781Y1.5625
X-2.0906Y1.1375
X-2.0906Y3.0625
X-1.9031Y1.1375
X-1.9031Y2.3125
X-1.5281Y1.5625
X-1.5281Y0.8125
X-1.4344Y0.8125
X-1.3406Y3.0625
X-1.1531Y2.3125
X-1.1531Y1.1375
X-1.1531Y1.1375
X-0.7781Y1.5625
X-0.6875Y0.8125
X-0.5906Y3.0625
X-0.4031Y2.3125
X-0.4031Y0.8125
X-0.2156Y1.1375
X-0.0281Y1.5625
X0.1594Y3.0625
X0.3469Y1.1375
X0.3469Y1.1375
X0.3469Y2.3125
X0.5344Y1.1375
X0.7219Y1.5625
X0.9094Y3.0625
X0.9094Y0.8125
X1.0969Y2.3125
X1.1906Y0.8125
X1.3781Y0.8125
X1.4719Y1.5625
X1.6594Y3.0625
X1.8469Y2.3125
X1.9406Y0.8125
X2.1281Y0.8125
X2.2219Y1.5625
X2.2219Y0.8125
X2.2219Y1.2375
X2.3156Y2.7375
X2.4094Y3.0625
X2.6906Y1.5625
X2.7844Y3.0625
X2.8781Y2.3125
X2.9719Y0.8125
X3.0656Y1.5625
X3.0656Y0.8125
X3.1594Y1.2375
X3.1594Y3.0625
X3.2531Y2.7375
T0
M30
