%TF.GenerationSoftware,KiCad,Pcbnew,(6.99.0-5179-g411efe6f3d)*%
%TF.CreationDate,2023-01-30T17:50:43-08:00*%
%TF.ProjectId,pcb,7063622e-6b69-4636-9164-5f7063625858,rev?*%
%TF.SameCoordinates,Original*%
%TF.FileFunction,Soldermask,Top*%
%TF.FilePolarity,Negative*%
%FSLAX46Y46*%
G04 Gerber Fmt 4.6, Leading zero omitted, Abs format (unit mm)*
G04 Created by KiCad (PCBNEW (6.99.0-5179-g411efe6f3d)) date 2023-01-30 17:50:43*
%MOMM*%
%LPD*%
G01*
G04 APERTURE LIST*
%ADD10C,1.701800*%
%ADD11C,3.987800*%
%ADD12C,3.048000*%
%ADD13C,0.500000*%
G04 APERTURE END LIST*
D10*
%TO.C,SW10*%
X-109934652Y39687600D03*
D11*
X-115014652Y39687600D03*
D10*
X-120094652Y39687600D03*
%TD*%
%TO.C,SW48*%
X61515780Y39687600D03*
D11*
X56435780Y39687600D03*
D10*
X51355780Y39687600D03*
%TD*%
%TO.C,SW49*%
X35321964Y20637552D03*
D11*
X30241964Y20637552D03*
D10*
X25161964Y20637552D03*
%TD*%
%TO.C,SW41*%
X28178148Y77787696D03*
D11*
X23098148Y77787696D03*
D10*
X18018148Y77787696D03*
%TD*%
%TO.C,SW25*%
X-12382544Y20637552D03*
D11*
X-17462544Y20637552D03*
D10*
X-22542544Y20637552D03*
%TD*%
%TO.C,SW1*%
X-155813492Y58737648D03*
D11*
X-150733492Y58737648D03*
D10*
X-145653492Y58737648D03*
%TD*%
%TO.C,SW57*%
X80565828Y20637552D03*
D11*
X75485828Y20637552D03*
D10*
X70405828Y20637552D03*
%TD*%
%TO.C,SW8*%
X-124222188Y77787696D03*
D11*
X-129302188Y77787696D03*
D10*
X-134382188Y77787696D03*
%TD*%
%TO.C,SW60*%
X82947084Y20637552D03*
D11*
X77867084Y20637552D03*
D10*
X72787084Y20637552D03*
%TD*%
%TO.C,SW55*%
X59134524Y20637552D03*
D11*
X54054524Y20637552D03*
D10*
X48974524Y20637552D03*
%TD*%
%TO.C,SW59*%
X82947084Y39687600D03*
D11*
X77867084Y39687600D03*
D10*
X72787084Y39687600D03*
%TD*%
%TO.C,SW15*%
X-90884604Y39687600D03*
D11*
X-95964604Y39687600D03*
D10*
X-101044604Y39687600D03*
%TD*%
%TO.C,SW36*%
X-5159388Y58737648D03*
D11*
X-10239388Y58737648D03*
D10*
X-15319388Y58737648D03*
%TD*%
%TO.C,SW33*%
X-14684412Y39687600D03*
D11*
X-19764412Y39687600D03*
D10*
X-24844412Y39687600D03*
%TD*%
%TO.C,SW6*%
X-150416004Y20637552D03*
D11*
X-155496004Y20637552D03*
D10*
X-160576004Y20637552D03*
%TD*%
%TO.C,SW30*%
X-31353204Y20637552D03*
D11*
X-36433204Y20637552D03*
D10*
X-41513204Y20637552D03*
%TD*%
%TO.C,SW31*%
X-28971948Y77787696D03*
D11*
X-34051948Y77787696D03*
D10*
X-39131948Y77787696D03*
%TD*%
%TO.C,SW21*%
X-62309532Y20637552D03*
D11*
X-67389532Y20637552D03*
D10*
X-72469532Y20637552D03*
%TD*%
%TO.C,SW7*%
X-121840932Y20637552D03*
D11*
X-126920932Y20637552D03*
D10*
X-132000932Y20637552D03*
%TD*%
D12*
%TO.C,S5*%
X-86439460Y13652552D03*
D11*
X8810540Y28892552D03*
D12*
X8810540Y13652552D03*
D11*
X-86439460Y28892552D03*
%TD*%
D10*
%TO.C,SW13*%
X-105172140Y77787696D03*
D11*
X-110252140Y77787696D03*
D10*
X-115332140Y77787696D03*
%TD*%
%TO.C,SW5*%
X-140890980Y39687600D03*
D11*
X-145970980Y39687600D03*
D10*
X-151050980Y39687600D03*
%TD*%
%TO.C,SW16*%
X-102790884Y20637552D03*
D11*
X-107870884Y20637552D03*
D10*
X-112950884Y20637552D03*
%TD*%
%TO.C,SW24*%
X-52784508Y39687600D03*
D11*
X-57864508Y39687600D03*
D10*
X-62944508Y39687600D03*
%TD*%
%TO.C,SW23*%
X-62309532Y58737648D03*
D11*
X-67389532Y58737648D03*
D10*
X-72469532Y58737648D03*
%TD*%
%TO.C,SW46*%
X47228244Y77787696D03*
D11*
X42148244Y77787696D03*
D10*
X37068244Y77787696D03*
%TD*%
D11*
%TO.C,S2*%
X-134064730Y31432600D03*
X-157877230Y31432600D03*
%TD*%
D10*
%TO.C,SW26*%
X-48021996Y77787696D03*
D11*
X-53101996Y77787696D03*
D10*
X-58181996Y77787696D03*
%TD*%
D11*
%TO.C,S8*%
X-29289406Y28892552D03*
X-5476906Y28892552D03*
%TD*%
D10*
%TO.C,SW29*%
X-5159388Y20637552D03*
D11*
X-10239388Y20637552D03*
D10*
X-15319388Y20637552D03*
%TD*%
%TO.C,SW43*%
X42465732Y39687600D03*
D11*
X37385732Y39687600D03*
D10*
X32305732Y39687600D03*
%TD*%
%TO.C,SW37*%
X4365636Y39687600D03*
D11*
X-714364Y39687600D03*
D10*
X-5794364Y39687600D03*
%TD*%
%TO.C,SW50*%
X54372012Y20637552D03*
D11*
X49292012Y20637552D03*
D10*
X44212012Y20637552D03*
%TD*%
%TO.C,SW2*%
X-148034748Y20637552D03*
D11*
X-153114748Y20637552D03*
D10*
X-158194748Y20637552D03*
%TD*%
%TO.C,SW56*%
X75803316Y77787696D03*
D11*
X70723316Y77787696D03*
D10*
X65643316Y77787696D03*
%TD*%
%TO.C,SW47*%
X51990756Y58737648D03*
D11*
X46910756Y58737648D03*
D10*
X41830756Y58737648D03*
%TD*%
%TO.C,SW35*%
X-9921900Y77787696D03*
D11*
X-15001900Y77787696D03*
D10*
X-20081900Y77787696D03*
%TD*%
D11*
%TO.C,S4*%
X-76914526Y28892552D03*
X-53102026Y28892552D03*
%TD*%
D10*
%TO.C,SW42*%
X32940708Y58737648D03*
D11*
X27860708Y58737648D03*
D10*
X22780708Y58737648D03*
%TD*%
%TO.C,SW32*%
X-24209436Y58737648D03*
D11*
X-29289436Y58737648D03*
D10*
X-34369436Y58737648D03*
%TD*%
%TO.C,SW19*%
X-81359580Y58737648D03*
D11*
X-86439580Y58737648D03*
D10*
X-91519580Y58737648D03*
%TD*%
%TO.C,SW4*%
X-150415992Y58737648D03*
D11*
X-155495992Y58737648D03*
D10*
X-160575992Y58737648D03*
%TD*%
%TO.C,SW40*%
X23415684Y39687600D03*
D11*
X18335684Y39687600D03*
D10*
X13255684Y39687600D03*
%TD*%
%TO.C,SW9*%
X-119459676Y58737648D03*
D11*
X-124539676Y58737648D03*
D10*
X-129619676Y58737648D03*
%TD*%
%TO.C,SW52*%
X66278292Y77787696D03*
D11*
X61198292Y77787696D03*
D10*
X56118292Y77787696D03*
%TD*%
D11*
%TO.C,S7*%
X-29289388Y28892552D03*
X8810612Y28892552D03*
%TD*%
D10*
%TO.C,SW12*%
X-95647116Y20637552D03*
D11*
X-100727116Y20637552D03*
D10*
X-105807116Y20637552D03*
%TD*%
D11*
%TO.C,S6*%
X13573046Y28892552D03*
D12*
X-86439454Y13652552D03*
X13573046Y13652552D03*
D11*
X-86439454Y28892552D03*
%TD*%
D10*
%TO.C,SW61*%
X73422060Y39687600D03*
D11*
X68342060Y39687600D03*
D10*
X63262060Y39687600D03*
%TD*%
%TO.C,SW51*%
X61515780Y20637552D03*
D11*
X56435780Y20637552D03*
D10*
X51355780Y20637552D03*
%TD*%
%TO.C,SW34*%
X-33734460Y20637552D03*
D11*
X-38814460Y20637552D03*
D10*
X-43894460Y20637552D03*
%TD*%
%TO.C,SW39*%
X13890660Y58737648D03*
D11*
X8810660Y58737648D03*
D10*
X3730660Y58737648D03*
%TD*%
%TO.C,SW53*%
X68024572Y58737648D03*
D11*
X73104572Y58737648D03*
D10*
X78184572Y58737648D03*
%TD*%
%TO.C,SW27*%
X-43259484Y58737648D03*
D11*
X-48339484Y58737648D03*
D10*
X-53419484Y58737648D03*
%TD*%
D11*
%TO.C,S1*%
X82629566Y69532696D03*
X58817066Y69532696D03*
%TD*%
D10*
%TO.C,SW22*%
X-67072044Y77787696D03*
D11*
X-72152044Y77787696D03*
D10*
X-77232044Y77787696D03*
%TD*%
%TO.C,SW20*%
X-71834556Y39687600D03*
D11*
X-76914556Y39687600D03*
D10*
X-81994556Y39687600D03*
%TD*%
%TO.C,SW45*%
X40084476Y20637552D03*
D11*
X35004476Y20637552D03*
D10*
X29924476Y20637552D03*
%TD*%
%TO.C,SW38*%
X9128148Y77787696D03*
D11*
X4048148Y77787696D03*
D10*
X-1031852Y77787696D03*
%TD*%
%TO.C,SW44*%
X28178196Y20637552D03*
D11*
X23098196Y20637552D03*
D10*
X18018196Y20637552D03*
%TD*%
%TO.C,SW28*%
X-33734460Y39687600D03*
D11*
X-38814460Y39687600D03*
D10*
X-43894460Y39687600D03*
%TD*%
%TO.C,SW17*%
X-59928276Y20637552D03*
D11*
X-65008276Y20637552D03*
D10*
X-70088276Y20637552D03*
%TD*%
%TO.C,SW18*%
X-86122092Y77787696D03*
D11*
X-91202092Y77787696D03*
D10*
X-96282092Y77787696D03*
%TD*%
%TO.C,SW14*%
X-100409628Y58737648D03*
D11*
X-105489628Y58737648D03*
D10*
X-110569628Y58737648D03*
%TD*%
D11*
%TO.C,S9*%
X80248310Y31432600D03*
X56435810Y31432600D03*
%TD*%
D10*
%TO.C,SW3*%
X-148034748Y77787696D03*
D11*
X-153114748Y77787696D03*
D10*
X-158194748Y77787696D03*
%TD*%
D11*
%TO.C,S3*%
X-86439532Y28892552D03*
X-48339532Y28892552D03*
%TD*%
D10*
%TO.C,SW11*%
X-126603444Y20637552D03*
D11*
X-131683444Y20637552D03*
D10*
X-136763444Y20637552D03*
%TD*%
%TO.C,SW58*%
X85328340Y77787696D03*
D11*
X80248340Y77787696D03*
D10*
X75168340Y77787696D03*
%TD*%
D13*
X-34928824Y48732624D03*
X-32464444Y56273268D03*
X-28412560Y48732624D03*
X-45164476Y56273268D03*
X-41989468Y46517616D03*
X-31670692Y40878228D03*
X-40005088Y58340772D03*
X-45164476Y57233268D03*
X-39848840Y61515780D03*
X-38814748Y53181446D03*
X-38020998Y51593946D03*
X-28892560Y39831348D03*
X-39608498Y51593946D03*
X-38020998Y53181446D03*
X-32464444Y57233268D03*
X-41195716Y44846988D03*
X-32067568Y37193220D03*
X7620032Y69762672D03*
X-25717552Y37223220D03*
X-33258196Y46914492D03*
X-33258196Y48021996D03*
X-39608498Y53181446D03*
X-40005088Y44846988D03*
X-39608498Y52387696D03*
X-38814748Y51593946D03*
X-38814748Y52387696D03*
X-39128212Y64690788D03*
X-38020998Y52387696D03*
X-25717552Y38183220D03*
X-39064460Y44303236D03*
X-40401964Y54130279D03*
X-28098808Y55500144D03*
M02*
