%TF.GenerationSoftware,KiCad,Pcbnew,(6.99.0-5179-g411efe6f3d)*%
%TF.CreationDate,2023-01-30T17:50:43-08:00*%
%TF.ProjectId,pcb,7063622e-6b69-4636-9164-5f7063625858,rev?*%
%TF.SameCoordinates,Original*%
%TF.FileFunction,Soldermask,Bot*%
%TF.FilePolarity,Negative*%
%FSLAX46Y46*%
G04 Gerber Fmt 4.6, Leading zero omitted, Abs format (unit mm)*
G04 Created by KiCad (PCBNEW (6.99.0-5179-g411efe6f3d)) date 2023-01-30 17:50:43*
%MOMM*%
%LPD*%
G01*
G04 APERTURE LIST*
G04 Aperture macros list*
%AMRoundRect*
0 Rectangle with rounded corners*
0 $1 Rounding radius*
0 $2 $3 $4 $5 $6 $7 $8 $9 X,Y pos of 4 corners*
0 Add a 4 corners polygon primitive as box body*
4,1,4,$2,$3,$4,$5,$6,$7,$8,$9,$2,$3,0*
0 Add four circle primitives for the rounded corners*
1,1,$1+$1,$2,$3*
1,1,$1+$1,$4,$5*
1,1,$1+$1,$6,$7*
1,1,$1+$1,$8,$9*
0 Add four rect primitives between the rounded corners*
20,1,$1+$1,$2,$3,$4,$5,0*
20,1,$1+$1,$4,$5,$6,$7,0*
20,1,$1+$1,$6,$7,$8,$9,0*
20,1,$1+$1,$8,$9,$2,$3,0*%
G04 Aperture macros list end*
%ADD10C,1.701800*%
%ADD11C,3.987800*%
%ADD12C,2.300000*%
%ADD13C,3.048000*%
%ADD14C,4.000000*%
%ADD15R,1.200000X0.900000*%
%ADD16RoundRect,0.140000X0.140000X0.170000X-0.140000X0.170000X-0.140000X-0.170000X0.140000X-0.170000X0*%
%ADD17RoundRect,0.150000X0.150000X-0.587500X0.150000X0.587500X-0.150000X0.587500X-0.150000X-0.587500X0*%
%ADD18RoundRect,0.140000X0.170000X-0.140000X0.170000X0.140000X-0.170000X0.140000X-0.170000X-0.140000X0*%
%ADD19RoundRect,0.140000X-0.140000X-0.170000X0.140000X-0.170000X0.140000X0.170000X-0.140000X0.170000X0*%
%ADD20RoundRect,0.140000X-0.170000X0.140000X-0.170000X-0.140000X0.170000X-0.140000X0.170000X0.140000X0*%
%ADD21R,1.000000X1.700000*%
%ADD22RoundRect,0.150000X0.625000X-0.150000X0.625000X0.150000X-0.625000X0.150000X-0.625000X-0.150000X0*%
%ADD23RoundRect,0.250000X0.650000X-0.350000X0.650000X0.350000X-0.650000X0.350000X-0.650000X-0.350000X0*%
%ADD24RoundRect,0.135000X-0.185000X0.135000X-0.185000X-0.135000X0.185000X-0.135000X0.185000X0.135000X0*%
%ADD25RoundRect,0.150000X-0.150000X0.587500X-0.150000X-0.587500X0.150000X-0.587500X0.150000X0.587500X0*%
%ADD26RoundRect,0.075000X0.075000X-0.662500X0.075000X0.662500X-0.075000X0.662500X-0.075000X-0.662500X0*%
%ADD27RoundRect,0.075000X0.662500X-0.075000X0.662500X0.075000X-0.662500X0.075000X-0.662500X-0.075000X0*%
%ADD28C,0.500000*%
G04 APERTURE END LIST*
D10*
%TO.C,SW10*%
X-109934652Y39687600D03*
D11*
X-115014652Y39687600D03*
D10*
X-120094652Y39687600D03*
D12*
X-118824652Y42227600D03*
X-112474652Y44767600D03*
%TD*%
D10*
%TO.C,SW48*%
X61515780Y39687600D03*
D11*
X56435780Y39687600D03*
D10*
X51355780Y39687600D03*
D12*
X52625780Y42227600D03*
X58975780Y44767600D03*
%TD*%
D10*
%TO.C,SW49*%
X35321964Y20637552D03*
D11*
X30241964Y20637552D03*
D10*
X25161964Y20637552D03*
D12*
X26431964Y23177552D03*
X32781964Y25717552D03*
%TD*%
D10*
%TO.C,SW41*%
X28178148Y77787696D03*
D11*
X23098148Y77787696D03*
D10*
X18018148Y77787696D03*
D12*
X19288148Y80327696D03*
X25638148Y82867696D03*
%TD*%
D10*
%TO.C,SW25*%
X-12382544Y20637552D03*
D11*
X-17462544Y20637552D03*
D10*
X-22542544Y20637552D03*
D12*
X-21272544Y23177552D03*
X-14922544Y25717552D03*
%TD*%
D10*
%TO.C,SW1*%
X-155813492Y58737648D03*
D11*
X-150733492Y58737648D03*
D10*
X-145653492Y58737648D03*
D12*
X-154543492Y61277648D03*
X-148193492Y63817648D03*
%TD*%
D10*
%TO.C,SW57*%
X80565828Y20637552D03*
D11*
X75485828Y20637552D03*
D10*
X70405828Y20637552D03*
D12*
X71675828Y23177552D03*
X78025828Y25717552D03*
%TD*%
D10*
%TO.C,SW8*%
X-124222188Y77787696D03*
D11*
X-129302188Y77787696D03*
D10*
X-134382188Y77787696D03*
D12*
X-133112188Y80327696D03*
X-126762188Y82867696D03*
%TD*%
D10*
%TO.C,SW60*%
X82947084Y20637552D03*
D11*
X77867084Y20637552D03*
D10*
X72787084Y20637552D03*
D12*
X74057084Y23177552D03*
X80407084Y25717552D03*
%TD*%
D10*
%TO.C,SW55*%
X59134524Y20637552D03*
D11*
X54054524Y20637552D03*
D10*
X48974524Y20637552D03*
D12*
X50244524Y23177552D03*
X56594524Y25717552D03*
%TD*%
D10*
%TO.C,SW59*%
X82947084Y39687600D03*
D11*
X77867084Y39687600D03*
D10*
X72787084Y39687600D03*
D12*
X74057084Y42227600D03*
X80407084Y44767600D03*
%TD*%
D10*
%TO.C,SW15*%
X-90884604Y39687600D03*
D11*
X-95964604Y39687600D03*
D10*
X-101044604Y39687600D03*
D12*
X-99774604Y42227600D03*
X-93424604Y44767600D03*
%TD*%
D10*
%TO.C,SW36*%
X-5159388Y58737648D03*
D11*
X-10239388Y58737648D03*
D10*
X-15319388Y58737648D03*
D12*
X-14049388Y61277648D03*
X-7699388Y63817648D03*
%TD*%
D10*
%TO.C,SW33*%
X-14684412Y39687600D03*
D11*
X-19764412Y39687600D03*
D10*
X-24844412Y39687600D03*
D12*
X-23574412Y42227600D03*
X-17224412Y44767600D03*
%TD*%
D10*
%TO.C,SW6*%
X-150416004Y20637552D03*
D11*
X-155496004Y20637552D03*
D10*
X-160576004Y20637552D03*
D12*
X-159306004Y23177552D03*
X-152956004Y25717552D03*
%TD*%
D10*
%TO.C,SW30*%
X-31353204Y20637552D03*
D11*
X-36433204Y20637552D03*
D10*
X-41513204Y20637552D03*
D12*
X-40243204Y23177552D03*
X-33893204Y25717552D03*
%TD*%
D10*
%TO.C,SW31*%
X-28971948Y77787696D03*
D11*
X-34051948Y77787696D03*
D10*
X-39131948Y77787696D03*
D12*
X-37861948Y80327696D03*
X-31511948Y82867696D03*
%TD*%
D10*
%TO.C,SW21*%
X-62309532Y20637552D03*
D11*
X-67389532Y20637552D03*
D10*
X-72469532Y20637552D03*
D12*
X-71199532Y23177552D03*
X-64849532Y25717552D03*
%TD*%
D10*
%TO.C,SW7*%
X-121840932Y20637552D03*
D11*
X-126920932Y20637552D03*
D10*
X-132000932Y20637552D03*
D12*
X-130730932Y23177552D03*
X-124380932Y25717552D03*
%TD*%
D13*
%TO.C,S5*%
X-86439460Y13652552D03*
D11*
X8810540Y28892552D03*
D13*
X8810540Y13652552D03*
D11*
X-86439460Y28892552D03*
%TD*%
D10*
%TO.C,SW13*%
X-105172140Y77787696D03*
D11*
X-110252140Y77787696D03*
D10*
X-115332140Y77787696D03*
D12*
X-114062140Y80327696D03*
X-107712140Y82867696D03*
%TD*%
D10*
%TO.C,SW5*%
X-140890980Y39687600D03*
D11*
X-145970980Y39687600D03*
D10*
X-151050980Y39687600D03*
D12*
X-149780980Y42227600D03*
X-143430980Y44767600D03*
%TD*%
D10*
%TO.C,SW16*%
X-102790884Y20637552D03*
D11*
X-107870884Y20637552D03*
D10*
X-112950884Y20637552D03*
D12*
X-111680884Y23177552D03*
X-105330884Y25717552D03*
%TD*%
D10*
%TO.C,SW24*%
X-52784508Y39687600D03*
D11*
X-57864508Y39687600D03*
D10*
X-62944508Y39687600D03*
D12*
X-61674508Y42227600D03*
X-55324508Y44767600D03*
%TD*%
D10*
%TO.C,SW23*%
X-62309532Y58737648D03*
D11*
X-67389532Y58737648D03*
D10*
X-72469532Y58737648D03*
D12*
X-71199532Y61277648D03*
X-64849532Y63817648D03*
%TD*%
D10*
%TO.C,SW46*%
X47228244Y77787696D03*
D11*
X42148244Y77787696D03*
D10*
X37068244Y77787696D03*
D12*
X38338244Y80327696D03*
X44688244Y82867696D03*
%TD*%
D11*
%TO.C,S2*%
X-134064730Y31432600D03*
X-157877230Y31432600D03*
D14*
X-134064730Y46672600D03*
X-157877230Y46672600D03*
%TD*%
D10*
%TO.C,SW26*%
X-48021996Y77787696D03*
D11*
X-53101996Y77787696D03*
D10*
X-58181996Y77787696D03*
D12*
X-56911996Y80327696D03*
X-50561996Y82867696D03*
%TD*%
D11*
%TO.C,S8*%
X-29289406Y28892552D03*
D14*
X-5476906Y13652552D03*
D11*
X-5476906Y28892552D03*
D14*
X-29289406Y13652552D03*
%TD*%
D10*
%TO.C,SW29*%
X-5159388Y20637552D03*
D11*
X-10239388Y20637552D03*
D10*
X-15319388Y20637552D03*
D12*
X-14049388Y23177552D03*
X-7699388Y25717552D03*
%TD*%
D10*
%TO.C,SW43*%
X42465732Y39687600D03*
D11*
X37385732Y39687600D03*
D10*
X32305732Y39687600D03*
D12*
X33575732Y42227600D03*
X39925732Y44767600D03*
%TD*%
D10*
%TO.C,SW37*%
X4365636Y39687600D03*
D11*
X-714364Y39687600D03*
D10*
X-5794364Y39687600D03*
D12*
X-4524364Y42227600D03*
X1825636Y44767600D03*
%TD*%
D10*
%TO.C,SW50*%
X54372012Y20637552D03*
D11*
X49292012Y20637552D03*
D10*
X44212012Y20637552D03*
D12*
X45482012Y23177552D03*
X51832012Y25717552D03*
%TD*%
D10*
%TO.C,SW2*%
X-148034748Y20637552D03*
D11*
X-153114748Y20637552D03*
D10*
X-158194748Y20637552D03*
D12*
X-156924748Y23177552D03*
X-150574748Y25717552D03*
%TD*%
D10*
%TO.C,SW56*%
X75803316Y77787696D03*
D11*
X70723316Y77787696D03*
D10*
X65643316Y77787696D03*
D12*
X66913316Y80327696D03*
X73263316Y82867696D03*
%TD*%
D10*
%TO.C,SW47*%
X51990756Y58737648D03*
D11*
X46910756Y58737648D03*
D10*
X41830756Y58737648D03*
D12*
X43100756Y61277648D03*
X49450756Y63817648D03*
%TD*%
D10*
%TO.C,SW35*%
X-9921900Y77787696D03*
D11*
X-15001900Y77787696D03*
D10*
X-20081900Y77787696D03*
D12*
X-18811900Y80327696D03*
X-12461900Y82867696D03*
%TD*%
D11*
%TO.C,S4*%
X-76914526Y28892552D03*
X-53102026Y28892552D03*
D14*
X-76914526Y13652552D03*
X-53102026Y13652552D03*
%TD*%
D10*
%TO.C,SW42*%
X32940708Y58737648D03*
D11*
X27860708Y58737648D03*
D10*
X22780708Y58737648D03*
D12*
X24050708Y61277648D03*
X30400708Y63817648D03*
%TD*%
D10*
%TO.C,SW32*%
X-24209436Y58737648D03*
D11*
X-29289436Y58737648D03*
D10*
X-34369436Y58737648D03*
D12*
X-33099436Y61277648D03*
X-26749436Y63817648D03*
%TD*%
D10*
%TO.C,SW19*%
X-81359580Y58737648D03*
D11*
X-86439580Y58737648D03*
D10*
X-91519580Y58737648D03*
D12*
X-90249580Y61277648D03*
X-83899580Y63817648D03*
%TD*%
D10*
%TO.C,SW4*%
X-150415992Y58737648D03*
D11*
X-155495992Y58737648D03*
D10*
X-160575992Y58737648D03*
D12*
X-159305992Y61277648D03*
X-152955992Y63817648D03*
%TD*%
D10*
%TO.C,SW40*%
X23415684Y39687600D03*
D11*
X18335684Y39687600D03*
D10*
X13255684Y39687600D03*
D12*
X14525684Y42227600D03*
X20875684Y44767600D03*
%TD*%
D10*
%TO.C,SW9*%
X-119459676Y58737648D03*
D11*
X-124539676Y58737648D03*
D10*
X-129619676Y58737648D03*
D12*
X-128349676Y61277648D03*
X-121999676Y63817648D03*
%TD*%
D10*
%TO.C,SW52*%
X66278292Y77787696D03*
D11*
X61198292Y77787696D03*
D10*
X56118292Y77787696D03*
D12*
X57388292Y80327696D03*
X63738292Y82867696D03*
%TD*%
D11*
%TO.C,S7*%
X-29289388Y28892552D03*
D14*
X-29289388Y13652552D03*
D11*
X8810612Y28892552D03*
D14*
X8810612Y13652552D03*
%TD*%
D10*
%TO.C,SW12*%
X-95647116Y20637552D03*
D11*
X-100727116Y20637552D03*
D10*
X-105807116Y20637552D03*
D12*
X-104537116Y23177552D03*
X-98187116Y25717552D03*
%TD*%
D11*
%TO.C,S6*%
X13573046Y28892552D03*
D13*
X-86439454Y13652552D03*
X13573046Y13652552D03*
D11*
X-86439454Y28892552D03*
%TD*%
D10*
%TO.C,SW61*%
X73422060Y39687600D03*
D11*
X68342060Y39687600D03*
D10*
X63262060Y39687600D03*
D12*
X64532060Y42227600D03*
X70882060Y44767600D03*
%TD*%
D10*
%TO.C,SW51*%
X61515780Y20637552D03*
D11*
X56435780Y20637552D03*
D10*
X51355780Y20637552D03*
D12*
X52625780Y23177552D03*
X58975780Y25717552D03*
%TD*%
D10*
%TO.C,SW34*%
X-33734460Y20637552D03*
D11*
X-38814460Y20637552D03*
D10*
X-43894460Y20637552D03*
D12*
X-42624460Y23177552D03*
X-36274460Y25717552D03*
%TD*%
D10*
%TO.C,SW39*%
X13890660Y58737648D03*
D11*
X8810660Y58737648D03*
D10*
X3730660Y58737648D03*
D12*
X5000660Y61277648D03*
X11350660Y63817648D03*
%TD*%
D10*
%TO.C,SW53*%
X68024572Y58737648D03*
D11*
X73104572Y58737648D03*
D10*
X78184572Y58737648D03*
D12*
X69294572Y61277648D03*
X75644572Y63817648D03*
%TD*%
D10*
%TO.C,SW27*%
X-43259484Y58737648D03*
D11*
X-48339484Y58737648D03*
D10*
X-53419484Y58737648D03*
D12*
X-52149484Y61277648D03*
X-45799484Y63817648D03*
%TD*%
D11*
%TO.C,S1*%
X82629566Y69532696D03*
X58817066Y69532696D03*
D14*
X58817066Y84772696D03*
X82629566Y84772696D03*
%TD*%
D10*
%TO.C,SW22*%
X-67072044Y77787696D03*
D11*
X-72152044Y77787696D03*
D10*
X-77232044Y77787696D03*
D12*
X-75962044Y80327696D03*
X-69612044Y82867696D03*
%TD*%
D10*
%TO.C,SW20*%
X-71834556Y39687600D03*
D11*
X-76914556Y39687600D03*
D10*
X-81994556Y39687600D03*
D12*
X-80724556Y42227600D03*
X-74374556Y44767600D03*
%TD*%
D10*
%TO.C,SW45*%
X40084476Y20637552D03*
D11*
X35004476Y20637552D03*
D10*
X29924476Y20637552D03*
D12*
X31194476Y23177552D03*
X37544476Y25717552D03*
%TD*%
D10*
%TO.C,SW38*%
X9128148Y77787696D03*
D11*
X4048148Y77787696D03*
D10*
X-1031852Y77787696D03*
D12*
X238148Y80327696D03*
X6588148Y82867696D03*
%TD*%
D10*
%TO.C,SW44*%
X28178196Y20637552D03*
D11*
X23098196Y20637552D03*
D10*
X18018196Y20637552D03*
D12*
X19288196Y23177552D03*
X25638196Y25717552D03*
%TD*%
D10*
%TO.C,SW28*%
X-33734460Y39687600D03*
D11*
X-38814460Y39687600D03*
D10*
X-43894460Y39687600D03*
D12*
X-42624460Y42227600D03*
X-36274460Y44767600D03*
%TD*%
D10*
%TO.C,SW17*%
X-59928276Y20637552D03*
D11*
X-65008276Y20637552D03*
D10*
X-70088276Y20637552D03*
D12*
X-68818276Y23177552D03*
X-62468276Y25717552D03*
%TD*%
D10*
%TO.C,SW18*%
X-86122092Y77787696D03*
D11*
X-91202092Y77787696D03*
D10*
X-96282092Y77787696D03*
D12*
X-95012092Y80327696D03*
X-88662092Y82867696D03*
%TD*%
D10*
%TO.C,SW14*%
X-100409628Y58737648D03*
D11*
X-105489628Y58737648D03*
D10*
X-110569628Y58737648D03*
D12*
X-109299628Y61277648D03*
X-102949628Y63817648D03*
%TD*%
D11*
%TO.C,S9*%
X80248310Y31432600D03*
X56435810Y31432600D03*
D14*
X80248310Y46672600D03*
X56435810Y46672600D03*
%TD*%
D10*
%TO.C,SW3*%
X-148034748Y77787696D03*
D11*
X-153114748Y77787696D03*
D10*
X-158194748Y77787696D03*
D12*
X-156924748Y80327696D03*
X-150574748Y82867696D03*
%TD*%
D11*
%TO.C,S3*%
X-86439532Y28892552D03*
D14*
X-86439532Y13652552D03*
D11*
X-48339532Y28892552D03*
D14*
X-48339532Y13652552D03*
%TD*%
D10*
%TO.C,SW11*%
X-126603444Y20637552D03*
D11*
X-131683444Y20637552D03*
D10*
X-136763444Y20637552D03*
D12*
X-135493444Y23177552D03*
X-129143444Y25717552D03*
%TD*%
D10*
%TO.C,SW58*%
X85328340Y77787696D03*
D11*
X80248340Y77787696D03*
D10*
X75168340Y77787696D03*
D12*
X76438340Y80327696D03*
X82788340Y82867696D03*
%TD*%
D15*
%TO.C,D33*%
X21510691Y36450095D03*
X21510691Y39750095D03*
%TD*%
D16*
%TO.C,C12*%
X-40715716Y58340772D03*
X-41675716Y58340772D03*
%TD*%
D15*
%TO.C,D13*%
X-88027083Y74550191D03*
X-88027083Y77850191D03*
%TD*%
%TO.C,D3*%
X-142795971Y36450095D03*
X-142795971Y39750095D03*
%TD*%
%TO.C,D44*%
X51832011Y31812695D03*
X51832011Y28512695D03*
%TD*%
%TO.C,D22*%
X-35639451Y36450095D03*
X-35639451Y39750095D03*
%TD*%
D17*
%TO.C,U2*%
X-39848840Y60181404D03*
X-41748840Y60181404D03*
X-40798840Y62056404D03*
%TD*%
D15*
%TO.C,D1*%
X-149939739Y74550191D03*
X-149939739Y77850191D03*
%TD*%
%TO.C,D4*%
X-150574747Y31812575D03*
X-150574747Y28512575D03*
%TD*%
D18*
%TO.C,C10*%
X-33258196Y56273268D03*
X-33258196Y57233268D03*
%TD*%
D19*
%TO.C,C1*%
X-34928824Y48021996D03*
X-33968824Y48021996D03*
%TD*%
D15*
%TO.C,D29*%
X-7064379Y55500143D03*
X-7064379Y58800143D03*
%TD*%
%TO.C,D34*%
X26273203Y74550191D03*
X26273203Y77850191D03*
%TD*%
D20*
%TO.C,C4*%
X-40005088Y46517616D03*
X-40005088Y45557616D03*
%TD*%
D15*
%TO.C,D25*%
X-26114427Y55500143D03*
X-26114427Y58800143D03*
%TD*%
D18*
%TO.C,C11*%
X-34448824Y56273268D03*
X-34448824Y57233268D03*
%TD*%
D15*
%TO.C,D10*%
X-102314619Y55500143D03*
X-102314619Y58800143D03*
%TD*%
D19*
%TO.C,C2*%
X-34928824Y46914492D03*
X-33968824Y46914492D03*
%TD*%
D15*
%TO.C,D46*%
X76676455Y31812575D03*
X76676455Y28512575D03*
%TD*%
D21*
%TO.C,SW54*%
X-30792559Y48393863D03*
X-30792559Y42093863D03*
X-26992559Y42093863D03*
X-26992559Y48393863D03*
%TD*%
D15*
%TO.C,D12*%
X-98187115Y31812575D03*
X-98187115Y28512575D03*
%TD*%
D20*
%TO.C,C5*%
X-41195716Y46517616D03*
X-41195716Y45557616D03*
%TD*%
D15*
%TO.C,D20*%
X-49926987Y74550191D03*
X-49926987Y77850191D03*
%TD*%
%TO.C,D35*%
X31035715Y55500143D03*
X31035715Y58800143D03*
%TD*%
D20*
%TO.C,C3*%
X-32861320Y42548856D03*
X-32861320Y41588856D03*
%TD*%
D16*
%TO.C,C9*%
X-39128212Y63897036D03*
X-40088212Y63897036D03*
%TD*%
D15*
%TO.C,D37*%
X45323251Y74550191D03*
X45323251Y77850191D03*
%TD*%
%TO.C,D27*%
X-15002247Y31415699D03*
X-15002247Y28115699D03*
%TD*%
%TO.C,D18*%
X-64214523Y55500143D03*
X-64214523Y58800143D03*
%TD*%
%TO.C,D38*%
X50085763Y55500143D03*
X50085763Y58800143D03*
%TD*%
D22*
%TO.C,J1*%
X6048148Y66762672D03*
X6048148Y67762672D03*
X6048148Y68762672D03*
X6048148Y69762672D03*
D23*
X2173148Y71062672D03*
X2173148Y65462672D03*
%TD*%
D15*
%TO.C,D14*%
X-83264571Y55500143D03*
X-83264571Y58800143D03*
%TD*%
D24*
%TO.C,R3*%
X-26511304Y40197600D03*
X-26511304Y39177600D03*
%TD*%
%TO.C,R2*%
X-31273816Y38213220D03*
X-31273816Y37193220D03*
%TD*%
D15*
%TO.C,D11*%
X-92789595Y36450095D03*
X-92789595Y39750095D03*
%TD*%
D25*
%TO.C,Q1*%
X-29842560Y39831348D03*
X-27942560Y39831348D03*
X-28892560Y37956348D03*
%TD*%
D15*
%TO.C,D23*%
X-36274459Y31812575D03*
X-36274459Y28512575D03*
%TD*%
%TO.C,D19*%
X-54689499Y36450095D03*
X-54689499Y39750095D03*
%TD*%
%TO.C,D31*%
X7223155Y74550191D03*
X7223155Y77850191D03*
%TD*%
%TO.C,D40*%
X25638195Y31750079D03*
X25638195Y28450079D03*
%TD*%
%TO.C,D8*%
X-129143443Y31812575D03*
X-129143443Y28512575D03*
%TD*%
%TO.C,D41*%
X54054523Y74550191D03*
X54054523Y77850191D03*
%TD*%
%TO.C,D30*%
X2460643Y36450095D03*
X2460643Y39750095D03*
%TD*%
%TO.C,D32*%
X11985667Y55500143D03*
X11985667Y58800143D03*
%TD*%
%TO.C,D2*%
X-147558483Y55500143D03*
X-147558483Y58800143D03*
%TD*%
%TO.C,D6*%
X-121364667Y55500143D03*
X-121364667Y58800143D03*
%TD*%
D18*
%TO.C,C7*%
X-43180096Y56273268D03*
X-43180096Y57233268D03*
%TD*%
D15*
%TO.C,D42*%
X76279579Y55500143D03*
X76279579Y58800143D03*
%TD*%
D18*
%TO.C,C8*%
X-44370724Y56273268D03*
X-44370724Y57233268D03*
%TD*%
D24*
%TO.C,R1*%
X-31273816Y40197600D03*
X-31273816Y39177600D03*
%TD*%
D15*
%TO.C,D39*%
X59610787Y36450095D03*
X59610787Y39750095D03*
%TD*%
%TO.C,D43*%
X81042091Y36450095D03*
X81042091Y39750095D03*
%TD*%
%TO.C,D24*%
X-30876939Y74550191D03*
X-30876939Y77850191D03*
%TD*%
%TO.C,D7*%
X-111839643Y36450095D03*
X-111839643Y39750095D03*
%TD*%
%TO.C,D15*%
X-73739547Y36450095D03*
X-73739547Y39750095D03*
%TD*%
%TO.C,D28*%
X-11826891Y74550191D03*
X-11826891Y77850191D03*
%TD*%
D20*
%TO.C,C6*%
X-26511304Y38183220D03*
X-26511304Y37223220D03*
%TD*%
D15*
%TO.C,D17*%
X-68977035Y74550191D03*
X-68977035Y77850191D03*
%TD*%
%TO.C,D45*%
X83740835Y31812575D03*
X83740835Y28512575D03*
%TD*%
D26*
%TO.C,U1*%
X-36064460Y48225132D03*
X-36564460Y48225132D03*
X-37064460Y48225132D03*
X-37564460Y48225132D03*
X-38064460Y48225132D03*
X-38564460Y48225132D03*
X-39064460Y48225132D03*
X-39564460Y48225132D03*
X-40064460Y48225132D03*
X-40564460Y48225132D03*
X-41064460Y48225132D03*
X-41564460Y48225132D03*
D27*
X-42976960Y49637632D03*
X-42976960Y50137632D03*
X-42976960Y50637632D03*
X-42976960Y51137632D03*
X-42976960Y51637632D03*
X-42976960Y52137632D03*
X-42976960Y52637632D03*
X-42976960Y53137632D03*
X-42976960Y53637632D03*
X-42976960Y54137632D03*
X-42976960Y54637632D03*
X-42976960Y55137632D03*
D26*
X-41564460Y56550132D03*
X-41064460Y56550132D03*
X-40564460Y56550132D03*
X-40064460Y56550132D03*
X-39564460Y56550132D03*
X-39064460Y56550132D03*
X-38564460Y56550132D03*
X-38064460Y56550132D03*
X-37564460Y56550132D03*
X-37064460Y56550132D03*
X-36564460Y56550132D03*
X-36064460Y56550132D03*
D27*
X-34651960Y55137632D03*
X-34651960Y54637632D03*
X-34651960Y54137632D03*
X-34651960Y53637632D03*
X-34651960Y53137632D03*
X-34651960Y52637632D03*
X-34651960Y52137632D03*
X-34651960Y51637632D03*
X-34651960Y51137632D03*
X-34651960Y50637632D03*
X-34651960Y50137632D03*
X-34651960Y49637632D03*
%TD*%
D15*
%TO.C,D21*%
X-55483251Y55500143D03*
X-55483251Y58800143D03*
%TD*%
%TO.C,D5*%
X-126127179Y74550191D03*
X-126127179Y77850191D03*
%TD*%
%TO.C,D36*%
X40560739Y36450095D03*
X40560739Y39750095D03*
%TD*%
%TO.C,D16*%
X-62468275Y31812695D03*
X-62468275Y28512695D03*
%TD*%
%TO.C,D26*%
X-16589403Y36450095D03*
X-16589403Y39750095D03*
%TD*%
%TO.C,D9*%
X-107077131Y74550191D03*
X-107077131Y77850191D03*
%TD*%
D28*
X-34928824Y48732624D03*
X-32464444Y56273268D03*
X-28412560Y48732624D03*
X-45164476Y56273268D03*
X-41989468Y46517616D03*
X-31670692Y40878228D03*
X-40005088Y58340772D03*
X-45164476Y57233268D03*
X-39848840Y61515780D03*
X-38814748Y53181446D03*
X-38020998Y51593946D03*
X-28892560Y39831348D03*
X-39608498Y51593946D03*
X-38020998Y53181446D03*
X-32464444Y57233268D03*
X-41195716Y44846988D03*
X-32067568Y37193220D03*
X7620032Y69762672D03*
X-25717552Y37223220D03*
X-33258196Y46914492D03*
X-33258196Y48021996D03*
X-39608498Y53181446D03*
X-40005088Y44846988D03*
X-39608498Y52387696D03*
X-38814748Y51593946D03*
X-38814748Y52387696D03*
X-39128212Y64690788D03*
X-38020998Y52387696D03*
X-25717552Y38183220D03*
X-39064460Y44303236D03*
X-40401964Y54130279D03*
X-28098808Y55500144D03*
M02*
